<?xml version="1.0" encoding="iso-8859-1"?>
<!-- Generator: Adobe Illustrator 19.0.0, SVG Export Plug-In . SVG Version: 6.00 Build 0)  -->
<svg version="1.1" id="Layer_1" xmlns="http://www.w3.org/2000/svg" xmlns:xlink="http://www.w3.org/1999/xlink" x="0px" y="0px"
	 viewBox="0 0 512 512" style="enable-background:new 0 0 512 512;" xml:space="preserve">
<g>
	<g>
		<rect x="40.834" y="427.714" width="112.033" height="15.706"/>
	</g>
</g>
<g>
	<g>
		<rect x="152.867" y="444.466" width="47.117" height="15.706"/>
	</g>
</g>
<g>
	<g>
		<rect x="71.198" y="475.877" width="32.458" height="15.706"/>
	</g>
</g>
<g>
	<g>
		<rect y="467.501" width="15.706" height="15.706"/>
	</g>
</g>
<g>
	<g>
		<rect x="215.689" y="475.877" width="159.149" height="15.706"/>
	</g>
</g>
<g>
	<g>
		<rect x="327.722" y="444.466" width="56.54" height="15.706"/>
	</g>
</g>
<g>
	<g>
		<rect x="384.262" y="427.714" width="23.035" height="15.706"/>
	</g>
</g>
<g>
	<g>
		<rect x="255.477" y="427.714" width="39.787" height="15.706"/>
	</g>
</g>
<g>
	<g>
		<rect x="456.507" y="451.795" width="55.493" height="15.706"/>
	</g>
</g>
<g>
	<g>
		<rect x="414.626" y="484.254" width="16.753" height="15.706"/>
	</g>
</g>
<g>
	<g>
		<rect x="486.871" y="420.384" width="25.129" height="15.706"/>
	</g>
</g>
<g>
	<g>
		<rect y="420.384" width="15.706" height="15.706"/>
	</g>
</g>
<g>
	<g>
		<rect x="215.689" y="260.188" width="24.082" height="15.706"/>
	</g>
</g>
<g>
	<g>
		<rect x="279.558" y="363.845" width="32.458" height="15.706"/>
	</g>
</g>
<g>
	<g>
		<polygon points="232.442,188.99 232.442,203.648 207.313,203.648 207.313,219.354 232.442,219.354 232.442,204.695 
			262.806,204.695 262.806,188.99 		"/>
	</g>
</g>
<g>
	<g>
		<rect x="255.477" y="292.646" width="39.787" height="15.706"/>
	</g>
</g>
<g>
	<g>
		<path d="M475.183,387.926l-34.476-43.413c17.317-4.695,33.06-14.196,45.414-27.643c16.268-17.706,25.227-40.71,25.227-64.771
			c0-52.804-42.959-95.763-95.763-95.763c-19.655,0-38.544,5.912-54.624,17.097c-12.483,8.682-22.592,20.047-29.702,33.257
			l-75.511-95.088L36.315,387.926H0v15.706h512v-15.706H475.183z M415.586,172.042c44.144,0,80.057,35.913,80.057,80.057
			c0,20.116-7.488,39.344-21.087,54.146c-11.908,12.961-27.573,21.549-44.677,24.633l-87.796-110.557
			C354.779,190.896,383.319,172.042,415.586,172.042z M253.581,139.589l6.976,16.943h-20.432L253.581,139.589z M56.371,387.926
			l6.849-8.624l104.306,0.248v-15.706H75.494l5.82-7.329h29.671V340.81H93.787l64.023-80.622h57.879v-15.706h-45.407l57.371-72.245
			h39.371l62.514,151.82h-17.522v15.706h23.989l19.832,48.164H56.371z M372.823,387.926l-12.934-31.411h24.373V340.81h-30.839
			l-69.235-168.141l81.973,103.225h-14.357v15.706h26.829l6.652,8.376h-17.775v15.706h30.247l57.371,72.245H372.823z"/>
	</g>
</g>
<g>
	<g>
		<rect x="31.411" y="20.417" width="16.753" height="15.706"/>
	</g>
</g>
<g>
	<g>
		<rect x="87.951" y="68.581" width="15.706" height="15.706"/>
	</g>
</g>
<g>
	<g>
		<rect x="63.869" y="132.45" width="16.753" height="15.706"/>
	</g>
</g>
<g>
	<g>
		<rect x="15.706" y="228.777" width="15.706" height="15.706"/>
	</g>
</g>
<g>
	<g>
		<rect x="87.951" y="268.564" width="15.706" height="15.706"/>
	</g>
</g>
<g>
	<g>
		<rect x="120.409" y="172.237" width="15.706" height="15.706"/>
	</g>
</g>
<g>
	<g>
		<rect x="359.133" y="84.286" width="15.706" height="15.706"/>
	</g>
</g>
<g>
	<g>
		<rect x="463.836" y="124.074" width="15.706" height="15.706"/>
	</g>
</g>
<g>
	<g>
		<rect x="223.018" y="60.204" width="16.753" height="15.706"/>
	</g>
</g>
<g>
	<g>
		<rect x="295.264" y="12.041" width="16.753" height="15.706"/>
	</g>
</g>
<g>
	<g>
		<rect x="424.049" y="28.793" width="15.706" height="15.706"/>
	</g>
</g>
<g>
	<g>
		<rect x="496.294" y="332.434" width="15.706" height="15.706"/>
	</g>
</g>
<g>
</g>
<g>
</g>
<g>
</g>
<g>
</g>
<g>
</g>
<g>
</g>
<g>
</g>
<g>
</g>
<g>
</g>
<g>
</g>
<g>
</g>
<g>
</g>
<g>
</g>
<g>
</g>
<g>
</g>
</svg>
