<svg xmlns="http://www.w3.org/2000/svg" xmlns:xlink="http://www.w3.org/1999/xlink" version="1.1" x="0px" y="0px" viewBox="0 0 100 125" enable-background="new 0 0 100 100" xml:space="preserve"><path d="M51.283,7.69c-21.367,0-38.75,17.384-38.75,38.751c0,7.399,2.093,14.577,6.058,20.794l-6.277,16.49  c-0.156,0.409-0.05,0.87,0.268,1.17c0.205,0.194,0.472,0.296,0.742,0.296c0.149,0,0.3-0.03,0.442-0.094l15.361-6.875  c6.524,4.562,14.172,6.969,22.157,6.969c21.368,0,38.751-17.384,38.751-38.75C90.034,25.074,72.651,7.69,51.283,7.69z   M51.283,79.474c-6.983,0-13.664-2.16-19.319-6.248c-0.796-0.574-1.735-0.878-2.715-0.878c-0.658,0-1.295,0.136-1.893,0.404  l-5.721,2.561l2.494-6.556c0.531-1.389,0.359-2.957-0.458-4.196c-3.544-5.389-5.418-11.654-5.418-18.12  c0-8.808,3.439-17.099,9.686-23.346c6.246-6.247,14.538-9.687,23.346-9.687c18.215,0,33.033,14.819,33.033,33.033  C84.316,64.655,69.498,79.474,51.283,79.474z"/><path d="M48.319,39.468H36.893v4.585h10.488v3.75H36.893v5.552h11.953v3.881H32.484V35.645h15.835V39.468z"/><path d="M52.289,35.645h4.729L65.59,50.7V35.645h4.203v21.591h-4.51l-8.791-15.32v15.32h-4.203V35.645z"/><text x="0" y="115" fill="#000000" font-size="5px" font-weight="bold" font-family="'Helvetica Neue', Helvetica, Arial-Unicode, Arial, Sans-serif">Created by corpus delicti</text><text x="0" y="120" fill="#000000" font-size="5px" font-weight="bold" font-family="'Helvetica Neue', Helvetica, Arial-Unicode, Arial, Sans-serif">from the Noun Project</text></svg>