<svg xmlns="http://www.w3.org/2000/svg" xmlns:xlink="http://www.w3.org/1999/xlink" version="1.1" x="0px" y="0px" viewBox="0 0 100 125" style="enable-background:new 0 0 100 100;" xml:space="preserve"><g><path d="M84,5H16C9.9,5,5,9.6,5,15.3V67c0,5.7,4.9,10.3,11,10.3h7.2v15.3c0,0.9,0.6,1.8,1.5,2.2c0.4,0.2,0.7,0.2,1.1,0.2   c0.6,0,1.2-0.2,1.7-0.5l22.7-17.2H84c6.1,0,11-4.6,11-10.3V15.3C95,9.6,90.1,5,84,5z M89.9,66.9c0,3-2.6,5.4-5.8,5.4H49.2   c-0.6,0-1.2,0.2-1.7,0.5L28.4,87.3V74.7c0-1.3-1.2-2.4-2.6-2.4h-9.8c-3.2,0-5.8-2.4-5.8-5.4V15.5c0-3,2.6-5.4,5.8-5.4h68.2   c3.2,0,5.8,2.4,5.8,5.4V66.9z"/><polygon points="24.3,50 28.4,50 28.4,41.7 37.2,41.7 37.2,38.3 28.4,38.3 28.4,33.8 38.4,33.8 38.4,30.3 24.3,30.3  "/><path d="M56.5,48.4c-0.1-0.3-0.1-0.9-0.1-1.8v-1.3c0-1.4-0.2-2.4-0.6-3.1c-0.4-0.7-1-1.2-1.9-1.6c1.1-0.4,1.9-1,2.3-1.9   s0.7-1.8,0.7-2.8c0-0.8-0.1-1.5-0.4-2.1c-0.2-0.6-0.6-1.2-1-1.7c-0.5-0.6-1.1-1.1-1.8-1.4c-0.7-0.3-1.8-0.5-3.1-0.5h-9.4V50h4v-7.7   h4c1.1,0,1.9,0.2,2.3,0.6c0.4,0.4,0.6,1.3,0.7,2.5l0,1.8c0,0.6,0.1,1.1,0.2,1.7c0.1,0.3,0.1,0.6,0.3,1.1h4.6v-0.5   C56.9,49.3,56.6,48.9,56.5,48.4z M51.6,38.7c-0.4,0.2-1.1,0.3-2,0.3h-4.4v-5.3h4.6c0.8,0,1.5,0.1,1.9,0.3c0.8,0.4,1.1,1.2,1.1,2.4   C52.8,37.6,52.4,38.3,51.6,38.7z"/><path d="M66.5,30.3l-7,19.7h4.3l1.3-4.1h7.3l1.3,4.1h4.5l-7-19.7H66.5z M66.3,42.5l2.6-7.8l2.5,7.8H66.3z"/></g><text x="0" y="115" fill="#000000" font-size="5px" font-weight="bold" font-family="'Helvetica Neue', Helvetica, Arial-Unicode, Arial, Sans-serif">Created by Jonathan Coutiño</text><text x="0" y="120" fill="#000000" font-size="5px" font-weight="bold" font-family="'Helvetica Neue', Helvetica, Arial-Unicode, Arial, Sans-serif">from the Noun Project</text></svg>