<svg xmlns="http://www.w3.org/2000/svg" xmlns:xlink="http://www.w3.org/1999/xlink" version="1.1" x="0px" y="0px" viewBox="0 0 100 125" enable-background="new 0 0 100 100" xml:space="preserve"><path d="M49.041,9.523c-21.367,0-38.75,17.385-38.75,38.751c0,7.398,2.093,14.577,6.058,20.794l-6.277,16.49  c-0.156,0.409-0.05,0.87,0.268,1.17c0.205,0.194,0.472,0.296,0.742,0.296c0.149,0,0.3-0.029,0.442-0.094l15.361-6.875  c6.524,4.562,14.172,6.969,22.156,6.969c21.368,0,38.751-17.384,38.751-38.75S70.411,9.523,49.041,9.523z M46.896,59.106H30.535  V37.515H46.37v3.822H34.944v4.585h10.488v3.75H34.944v5.553h11.953V59.106z M64.97,57.709c-1.523,1.303-3.68,1.955-6.463,1.955  c-2.843,0-5.078-0.644-6.707-1.926c-1.629-1.285-2.442-3.051-2.442-5.297h4.307c0.14,0.986,0.414,1.725,0.824,2.213  c0.746,0.889,2.027,1.332,3.842,1.332c1.086,0,1.97-0.117,2.647-0.352c1.285-0.449,1.932-1.284,1.932-2.506  c0-0.713-0.316-1.264-0.945-1.654c-0.631-0.381-1.63-0.719-2.999-1.012l-2.338-0.513c-2.297-0.508-3.875-1.059-4.734-1.655  c-1.455-0.996-2.184-2.554-2.184-4.673c0-1.933,0.714-3.54,2.137-4.818c1.423-1.279,3.514-1.919,6.271-1.919  c2.303,0,4.269,0.603,5.896,1.809s2.479,2.956,2.559,5.251h-4.336c-0.08-1.299-0.662-2.222-1.743-2.769  c-0.721-0.361-1.617-0.543-2.688-0.543c-1.191,0-2.143,0.234-2.854,0.703c-0.711,0.47-1.066,1.123-1.066,1.963  c0,0.772,0.352,1.349,1.051,1.729c0.451,0.254,1.406,0.552,2.869,0.894l3.79,0.895c1.66,0.39,2.904,0.913,3.734,1.567  c1.287,1.016,1.93,2.485,1.928,4.409C67.257,54.767,66.495,56.404,64.97,57.709z"/><text x="0" y="115" fill="#000000" font-size="5px" font-weight="bold" font-family="'Helvetica Neue', Helvetica, Arial-Unicode, Arial, Sans-serif">Created by corpus delicti</text><text x="0" y="120" fill="#000000" font-size="5px" font-weight="bold" font-family="'Helvetica Neue', Helvetica, Arial-Unicode, Arial, Sans-serif">from the Noun Project</text></svg>