<?xml version="1.0" standalone="no"?>
<!DOCTYPE svg PUBLIC "-//W3C//DTD SVG 20010904//EN"
 "http://www.w3.org/TR/2001/REC-SVG-20010904/DTD/svg10.dtd">
<svg version="1.0" xmlns="http://www.w3.org/2000/svg"
 width="1200.000000pt" height="1200.000000pt" viewBox="0 0 1200.000000 1200.000000"
 preserveAspectRatio="xMidYMid meet">
<metadata>
Created by potrace 1.14, written by Peter Selinger 2001-2017
</metadata>
<g transform="translate(0.000000,1200.000000) scale(0.100000,-0.100000)"
fill="#000000" stroke="none">
<path d="M5877 11152 c-15 -15 -27 -34 -27 -40 0 -7 -17 -30 -38 -50 -21 -21
-41 -45 -45 -55 -3 -9 -11 -17 -17 -17 -13 0 -13 13 0 26 20 20 -104 10 -135
-10 -43 -28 -119 -107 -148 -154 -15 -22 -45 -55 -68 -74 -50 -40 -69 -74 -62
-112 4 -19 2 -27 -5 -22 -16 9 -42 -33 -42 -69 0 -22 -3 -26 -10 -15 -7 11
-14 3 -30 -35 -12 -28 -27 -69 -33 -92 -6 -24 -15 -43 -20 -43 -6 0 -28 20
-50 45 -47 53 -76 57 -112 19 -29 -31 -31 -40 -11 -47 16 -6 36 11 36 30 0 17
17 17 23 1 4 -10 6 -10 6 0 1 6 10 12 20 12 14 0 18 -5 14 -20 -4 -15 0 -20
16 -20 25 0 28 -15 4 -24 -15 -6 -15 -8 -3 -16 22 -14 57 -12 74 5 17 17 30
20 20 4 -4 -7 0 -9 12 -5 11 3 25 2 33 -3 12 -8 9 -16 -15 -43 -44 -51 -60
-93 -44 -122 8 -16 10 -41 5 -75 -7 -50 -25 -81 -25 -42 0 11 -9 22 -20 26
-17 5 -20 15 -18 68 0 34 5 72 9 84 11 30 1 53 -22 53 -10 0 -22 8 -28 17 -17
31 -23 6 -7 -26 20 -38 20 -55 1 -71 -25 -21 -17 -80 20 -157 28 -59 35 -84
35 -133 0 -43 7 -77 24 -113 13 -29 26 -62 30 -75 4 -12 30 -50 57 -84 27 -34
49 -65 49 -70 0 -21 -22 -3 -66 52 -26 33 -48 60 -50 60 -1 0 3 -14 9 -32 16
-43 67 -95 103 -104 16 -4 36 -17 44 -28 8 -12 31 -40 52 -62 21 -23 38 -48
38 -56 0 -14 40 -58 52 -58 5 0 195 -118 279 -173 36 -24 117 -47 166 -47 45
0 162 -17 226 -32 58 -14 34 -28 -49 -28 -41 0 -74 -4 -74 -9 0 -16 178 -31
210 -18 11 5 20 -5 35 -38 11 -25 24 -44 30 -42 14 5 44 68 45 95 0 18 6 22
30 22 22 0 28 4 24 15 -4 9 0 15 10 15 9 0 16 -4 16 -10 0 -5 9 -10 20 -10 22
0 27 16 8 23 -7 2 -10 8 -5 12 4 5 13 3 19 -3 17 -17 42 -15 69 7 13 10 38 22
56 25 18 4 42 15 55 25 13 10 33 21 44 25 25 8 63 46 46 46 -7 0 -21 -9 -32
-20 -18 -18 -20 -18 -20 -3 0 16 -1 16 -12 0 -7 -9 -33 -23 -57 -32 -53 -18
-51 -18 -51 0 0 8 8 15 18 15 10 0 33 13 52 30 19 16 38 29 42 30 4 0 24 11
44 25 20 14 50 25 66 25 55 0 142 77 287 252 39 48 87 99 107 114 33 26 84
104 67 104 -5 0 -26 -18 -48 -40 -22 -21 -45 -39 -50 -40 -6 0 -40 -28 -76
-62 -36 -35 -83 -72 -104 -83 -22 -11 -42 -23 -45 -27 -3 -4 -28 -17 -55 -30
-28 -13 -72 -39 -99 -57 -55 -38 -170 -89 -271 -120 -74 -23 -99 -26 -90 -11
3 6 14 10 23 10 45 0 262 138 262 166 0 3 17 26 38 50 66 74 129 176 152 244
73 219 64 453 -24 664 -27 64 -121 198 -192 274 -131 138 -224 191 -388 217
-93 16 -123 17 -224 7 -144 -14 -200 -30 -326 -93 -54 -27 -101 -47 -105 -43
-8 8 36 37 63 41 11 2 23 8 24 13 2 6 12 10 23 10 12 0 24 11 32 28 17 39 37
51 80 52 21 0 54 7 75 16 20 9 74 18 120 21 45 3 82 9 82 13 0 13 -99 23 -113
12 -13 -10 -87 -28 -159 -38 -54 -7 -66 5 -49 47 34 89 134 122 178 59 12 -17
23 -19 80 -16 45 3 79 -1 105 -11 22 -9 53 -13 71 -10 42 6 117 39 117 50 0 5
-8 6 -17 2 -35 -15 -139 -22 -192 -13 -30 5 -67 7 -82 4 -19 -4 -45 4 -83 24
-71 38 -104 38 -139 2z m-169 -158 c12 -4 22 -11 22 -16 0 -15 -51 -78 -63
-78 -6 0 -29 -20 -52 -44 -37 -38 -49 -44 -91 -48 -27 -3 -51 -3 -53 -1 -2 1
9 16 25 33 16 17 37 39 47 50 20 24 46 28 27 5 -8 -9 -8 -15 -2 -15 6 0 14 10
18 23 4 12 15 28 25 35 11 7 19 18 19 24 0 12 30 37 45 38 6 0 20 -3 33 -6z
m-58 -161 c-1 -9 -50 -47 -50 -38 0 3 6 14 12 25 12 19 38 28 38 13z m-176
-62 c16 -18 16 -20 0 -36 -17 -17 -19 -16 -36 5 -14 17 -16 26 -7 36 15 18 23
18 43 -5z m-84 -61 c0 -5 -4 -10 -10 -10 -5 0 -10 5 -10 10 0 6 5 10 10 10 6
0 10 -4 10 -10z m47 -27 c-2 -23 -7 -28 -30 -28 -31 -1 -33 3 -11 33 22 31 43
28 41 -5z m-85 -82 c-1 -7 8 -21 20 -31 19 -15 20 -20 9 -34 -18 -22 -41 -20
-41 3 0 11 -5 21 -11 23 -6 2 -8 14 -4 31 7 26 33 33 27 8z m54 8 c3 -6 2 -15
-4 -21 -7 -7 -14 -3 -21 11 -10 17 -9 21 3 21 8 0 18 -5 22 -11z m-97 -101
c-7 -13 -14 -18 -16 -11 -3 7 1 22 8 35 7 13 14 18 16 11 3 -7 -1 -22 -8 -35z
m-39 -82 c0 -3 -4 -8 -10 -11 -5 -3 -10 -1 -10 4 0 6 5 11 10 11 6 0 10 -2 10
-4z m785 -146 c4 -6 -5 -10 -19 -10 -14 0 -26 5 -26 10 0 6 9 10 19 10 11 0
23 -4 26 -10z m-50 -30 c-3 -5 -13 -10 -21 -10 -8 0 -14 5 -14 10 0 6 9 10 21
10 11 0 17 -4 14 -10z m235 -10 c8 -5 11 -10 5 -10 -5 0 -17 5 -25 10 -8 5
-10 10 -5 10 6 0 17 -5 25 -10z m-957 -20 c-3 -11 -9 -20 -14 -20 -10 0 -12
24 -2 33 13 13 21 7 16 -13z m437 -50 c0 -5 -7 -10 -16 -10 -8 0 -12 5 -9 10
3 6 10 10 16 10 5 0 9 -4 9 -10z m170 -16 c0 -8 -5 -12 -10 -9 -6 4 -17 1 -25
-5 -20 -16 -40 -3 -24 16 16 19 59 18 59 -2z m-122 -21 c-2 -10 -13 -19 -26
-21 -24 -4 -29 7 -10 26 18 18 40 15 36 -5z m448 -25 c-3 -13 -6 -26 -6 -30 0
-16 -19 -7 -25 12 -8 24 1 40 22 40 11 0 14 -6 9 -22z m-291 -9 c-11 -16 -82
-30 -106 -20 -21 8 -12 16 13 12 4 0 21 6 39 13 33 14 63 11 54 -5z m60 11
c-3 -5 -13 -10 -21 -10 -8 0 -14 5 -14 10 0 6 9 10 21 10 11 0 17 -4 14 -10z
m-301 -25 c-5 -20 -2 -25 21 -31 18 -4 23 -10 16 -17 -6 -6 -6 -16 2 -28 6
-10 8 -22 4 -26 -11 -11 -28 19 -23 40 3 13 -4 18 -35 23 -21 4 -39 9 -39 12
0 9 43 52 52 52 5 0 6 -11 2 -25z m623 -12 c28 -32 29 -43 3 -43 -20 0 -40 27
-40 54 0 23 11 20 37 -11z m-529 10 c-10 -2 -26 -2 -35 0 -10 3 -2 5 17 5 19
0 27 -2 18 -5z m56 -100 c-9 -21 -20 -45 -24 -53 -9 -18 8 -90 26 -111 8 -8
14 -24 14 -35 0 -11 9 -25 20 -32 20 -12 28 -42 11 -42 -8 0 -76 82 -85 103
-3 8 -8 7 -15 -3 -10 -13 -11 -13 -12 0 -1 8 -3 20 -3 25 -1 6 -5 15 -8 21
-10 15 -2 87 13 129 11 30 17 35 46 35 l33 0 -16 -37z m106 26 c0 -8 5 -7 15
1 9 7 17 11 18 9 2 -2 25 -32 51 -66 26 -35 53 -63 60 -63 18 0 56 -85 56
-125 0 -19 -4 -35 -10 -35 -5 0 -10 4 -10 9 0 5 -8 11 -18 13 -19 5 -72 77
-76 102 -1 8 -5 19 -9 22 -4 4 -7 16 -7 26 0 17 -60 86 -60 70 -1 -10 -30 30
-30 40 0 4 5 8 10 8 6 0 10 -5 10 -11z m-240 -55 c0 -13 -4 -24 -9 -24 -11 0
-22 40 -15 52 9 15 24 -2 24 -28z m801 -87 c-17 -43 -30 -23 -18 25 9 36 12
39 19 22 6 -12 5 -30 -1 -47z m-63 -57 c7 0 12 -6 12 -14 0 -10 -9 -12 -40 -6
-51 9 -58 17 -34 34 16 13 21 13 35 0 8 -8 21 -14 27 -14z m-140 2 c6 -18 -15
-14 -22 4 -4 10 -1 14 6 12 6 -2 14 -10 16 -16z m-68 -72 c0 -5 -2 -10 -4 -10
-3 0 -8 5 -11 10 -3 6 -1 10 4 10 6 0 11 -4 11 -10z m-394 -27 c-7 -7 -26 7
-26 19 0 6 6 6 15 -2 9 -7 13 -15 11 -17z m-360 -66 c32 -35 80 -85 105 -112
25 -28 69 -69 97 -93 29 -24 52 -50 52 -58 0 -29 -37 -12 -100 47 -36 34 -78
73 -94 88 -35 32 -136 166 -136 180 0 22 18 9 76 -52z m859 -354 c-23 -16 -69
-18 -59 -2 3 6 14 9 24 6 11 -3 21 2 24 10 3 8 11 11 17 7 9 -5 6 -11 -6 -21z
m94 3 c-2 -2 -21 -6 -42 -10 -27 -5 -37 -4 -32 3 3 6 22 11 42 11 20 0 34 -2
32 -4z m-15 -48 c-4 -7 -16 -19 -27 -27 -13 -9 -17 -20 -13 -37 8 -32 -8 -31
-22 1 -13 29 -46 33 -77 9 -17 -13 -18 -17 -6 -35 22 -37 -2 -44 -48 -13 -23
15 -40 28 -38 30 1 2 20 15 42 30 32 22 47 25 87 22 38 -4 51 -1 64 13 19 21
50 26 38 7z m161 -37 c-3 -5 -31 -13 -63 -17 -38 -4 -68 -16 -91 -33 l-34 -25
7 24 c14 46 42 60 118 60 40 0 67 -4 63 -9z"/>
<path d="M6480 11121 c56 -12 89 -15 97 -9 24 19 91 -2 120 -37 22 -25 32 -31
48 -24 11 4 14 8 6 8 -8 1 -30 18 -50 39 l-36 39 -135 1 -135 1 85 -18z"/>
<path d="M6827 11094 c-3 -3 -2 -14 3 -23 4 -9 13 -41 19 -71 15 -70 23 -84
49 -76 25 8 18 46 -8 46 -24 0 -29 17 -20 73 4 26 5 49 2 52 -7 7 -37 6 -45
-1z"/>
<path d="M6907 11046 c10 -13 20 -20 21 -15 5 12 -17 39 -30 39 -5 0 -1 -11 9
-24z"/>
<path d="M6203 11043 c9 -2 23 -2 30 0 6 3 -1 5 -18 5 -16 0 -22 -2 -12 -5z"/>
<path d="M6260 11036 c0 -2 14 -6 30 -8 17 -3 30 -1 30 4 0 4 -13 8 -30 8 -16
0 -30 -2 -30 -4z"/>
<path d="M6411 11000 c9 -5 56 -16 105 -25 103 -18 144 -29 199 -56 50 -24
127 -50 132 -45 3 3 -51 29 -67 32 -17 3 -48 19 -65 34 -11 10 -42 20 -70 24
-27 3 -86 15 -130 26 -89 22 -131 26 -104 10z"/>
<path d="M6955 10896 c76 -60 81 -65 66 -75 -7 -5 -10 -14 -7 -20 4 -6 2 -11
-3 -11 -6 0 -11 -7 -11 -16 0 -11 5 -14 16 -10 9 3 18 6 20 6 2 0 4 7 4 15 0
9 6 12 16 8 38 -14 -40 94 -83 116 -38 19 -49 12 -18 -13z"/>
<path d="M6985 10840 c3 -5 8 -10 11 -10 2 0 4 5 4 10 0 6 -5 10 -11 10 -5 0
-7 -4 -4 -10z"/>
<path d="M4015 10790 c4 -6 11 -8 16 -5 14 9 11 15 -7 15 -8 0 -12 -5 -9 -10z"/>
<path d="M7070 10774 c0 -4 12 -20 27 -36 25 -26 25 -29 10 -46 -14 -15 -15
-21 -4 -35 18 -24 87 -51 87 -35 1 7 10 2 20 -11 14 -16 17 -27 10 -36 -12
-14 9 -65 27 -65 7 0 10 -7 7 -15 -4 -8 -1 -15 4 -15 19 0 23 19 9 42 -8 13
-18 36 -21 52 -12 51 -41 83 -76 83 -18 0 -36 6 -41 14 -12 20 8 24 27 5 33
-33 24 -14 -15 33 -45 54 -71 78 -71 65z"/>
<path d="M7036 10751 c-7 -10 43 -46 51 -37 7 7 -26 46 -38 46 -4 0 -10 -4
-13 -9z"/>
<path d="M4775 10630 c-10 -11 -15 -23 -11 -28 4 -4 13 0 20 10 14 19 61 14
89 -10 17 -15 23 -6 9 13 -9 13 -58 35 -76 35 -7 0 -21 -9 -31 -20z"/>
<path d="M7423 10553 c8 -10 17 -31 20 -48 4 -29 4 -28 6 6 1 34 -13 59 -33
59 -5 0 -2 -8 7 -17z"/>
<path d="M4480 10553 c1 -14 30 -48 30 -34 0 7 -7 19 -15 27 -8 9 -15 12 -15
7z"/>
<path d="M4870 10481 c0 -17 4 -32 9 -35 4 -3 6 6 3 19 -5 27 7 32 26 13 7 -7
12 -8 12 -2 0 14 -22 34 -37 34 -8 0 -13 -12 -13 -29z"/>
<path d="M7600 10439 c0 -17 4 -28 10 -24 6 3 10 17 10 31 0 13 -4 24 -10 24
-5 0 -10 -14 -10 -31z"/>
<path d="M4918 10417 c-18 -15 -8 -44 11 -32 8 5 10 -2 5 -22 l-7 -28 22 22
c17 18 19 27 11 48 -11 28 -18 30 -42 12z"/>
<path d="M7299 10403 c-35 -22 -45 -84 -21 -132 9 -19 24 -37 32 -39 11 -2 10
1 -3 11 -17 14 -17 16 8 36 31 24 25 44 -11 35 -14 -4 -24 -2 -24 5 0 6 4 11
10 11 5 0 12 11 16 25 3 13 12 29 20 36 15 12 19 29 7 29 -5 0 -20 -8 -34 -17z"/>
<path d="M7595 10370 c-3 -5 1 -10 10 -10 9 0 13 5 10 10 -3 6 -8 10 -10 10
-2 0 -7 -4 -10 -10z"/>
<path d="M7405 10327 c-17 -26 -12 -77 7 -77 6 0 8 7 4 15 -3 8 4 21 15 29 22
15 23 46 2 53 -6 2 -19 -7 -28 -20z"/>
<path d="M7680 10340 c0 -5 -6 -10 -14 -10 -18 0 -30 -17 -17 -24 5 -4 22 5
38 19 22 19 24 24 11 25 -10 0 -18 -4 -18 -10z"/>
<path d="M4016 10312 c-3 -5 -25 -13 -49 -17 -86 -15 -259 -95 -341 -159 -63
-49 -139 -183 -138 -246 0 -13 -7 -30 -16 -37 -16 -11 -16 -12 0 -13 14 0 15
-11 12 -82 -4 -75 -3 -81 10 -63 17 23 21 8 7 -28 -10 -26 10 -69 25 -54 4 4
-1 14 -12 21 -18 14 -18 15 -1 21 26 11 44 0 49 -29 4 -18 0 -30 -11 -37 -14
-9 -14 -10 2 -5 12 4 25 -2 38 -16 22 -27 23 -37 4 -61 -13 -18 -14 -18 -34 2
-12 12 -21 24 -21 27 0 12 -42 64 -51 64 -10 0 26 -68 41 -80 4 -3 15 -19 25
-36 12 -21 24 -30 35 -27 10 3 20 -2 23 -11 4 -9 2 -16 -3 -16 -6 0 -10 -7
-10 -15 0 -21 36 -19 45 3 6 16 7 16 19 -1 12 -15 15 -15 25 -3 10 11 8 16 -6
25 -30 16 -3 28 55 23 56 -4 68 -20 32 -45 -13 -9 -19 -23 -17 -45 1 -18 5
-32 10 -32 4 0 7 -7 7 -15 0 -13 12 -19 32 -16 4 0 7 -7 6 -17 -3 -37 2 -53
15 -45 22 14 45 13 57 -2 7 -8 17 -15 23 -15 6 0 22 -10 35 -22 17 -16 26 -19
29 -10 3 6 12 12 21 12 13 0 13 -2 -2 -13 -17 -13 -16 -15 18 -35 37 -22 40
-41 8 -43 -11 0 -8 -4 8 -10 24 -10 24 -11 6 -25 -11 -8 -28 -14 -38 -14 -17
0 -78 -26 -78 -34 0 -1 46 -3 103 -3 56 -1 115 -6 131 -12 19 -8 31 -8 35 -2
4 6 38 13 76 17 39 4 78 11 89 16 13 7 21 6 26 -2 6 -9 9 -9 15 0 4 6 26 20
49 29 99 43 230 186 274 301 38 97 45 146 39 249 -17 261 -158 504 -353 608
-68 36 -211 66 -294 61 -38 -2 -58 1 -66 11 -7 9 -13 10 -18 3z m-107 -148
c-6 -7 -15 -11 -21 -8 -5 3 -4 12 3 20 6 7 15 11 21 8 5 -3 4 -12 -3 -20z
m286 -24 c3 -5 1 -10 -4 -10 -20 0 -11 -18 11 -23 12 -4 19 -9 16 -12 -10 -10
-68 24 -68 40 0 17 35 21 45 5z m-315 -25 c0 -8 -9 -15 -20 -15 -20 0 -26 11
-13 23 12 13 33 7 33 -8z m215 -35 c4 -6 1 -17 -5 -26 -10 -11 -16 -12 -26 -3
-11 9 -11 15 -3 25 14 17 25 18 34 4z m-315 -36 c0 -8 -4 -12 -10 -9 -5 3 -10
10 -10 16 0 5 5 9 10 9 6 0 10 -7 10 -16z m751 -92 c51 -84 50 -93 -2 -17 -48
72 -62 103 -52 118 5 8 9 3 11 -12 2 -13 21 -53 43 -89z m-154 74 c-2 -6 -12
-11 -22 -11 -10 0 -20 5 -22 11 -2 7 7 12 22 12 15 0 24 -5 22 -12z m-71 -77
c3 -6 0 -15 -7 -20 -22 -14 -29 -11 -29 11 0 21 24 27 36 9z m-605 -20 c9 -18
7 -25 -10 -42 -16 -16 -24 -18 -33 -9 -9 9 -7 13 5 18 12 4 15 13 11 30 -8 30
11 32 27 3z m99 -63 c0 -8 -8 -22 -17 -31 -16 -16 -18 -16 -30 1 -12 16 -12
19 1 22 9 2 16 8 16 13 0 5 7 9 15 9 8 0 15 -6 15 -14z m267 6 c21 -13 34 -61
23 -83 -16 -29 -62 -49 -85 -37 -50 26 -57 61 -20 101 25 26 58 34 82 19z
m149 -102 c44 -31 64 -57 64 -84 0 -8 14 -30 30 -48 17 -18 30 -43 30 -55 0
-31 -5 -29 -31 15 -24 40 -78 102 -90 102 -14 0 -100 86 -93 93 15 14 47 6 90
-23z m104 14 c0 -8 -4 -12 -10 -9 -5 3 -10 10 -10 16 0 5 5 9 10 9 6 0 10 -7
10 -16z m-140 -69 c7 -9 10 -18 7 -21 -10 -11 -37 5 -37 21 0 19 14 19 30 0z
m-81 -135 c0 -9 -4 -8 -9 5 -5 11 -9 27 -9 35 0 9 4 8 9 -5 5 -11 9 -27 9 -35z
m92 40 c23 -13 25 -36 3 -44 -24 -9 -27 -8 -21 14 3 11 1 20 -4 20 -5 0 -9 5
-9 10 0 13 6 13 31 0z m-361 -30 c0 -5 -7 -10 -16 -10 -8 0 -12 5 -9 10 3 6
10 10 16 10 5 0 9 -4 9 -10z m46 -54 c0 -32 -3 -35 -37 -41 -24 -4 -46 -2 -61
7 -22 13 -22 13 16 16 27 2 40 9 43 22 3 10 12 21 22 23 9 3 16 5 17 6 0 0 0
-15 0 -33z m274 11 c0 -13 9 -26 22 -32 12 -6 23 -15 26 -22 2 -8 -6 -7 -27 3
-17 8 -34 13 -39 10 -6 -4 -9 31 -4 57 4 17 22 5 22 -16z m50 -7 c0 -5 -5 -10
-11 -10 -5 0 -7 5 -4 10 3 6 8 10 11 10 2 0 4 -4 4 -10z m-555 -41 c10 -15 -1
-23 -20 -15 -9 3 -13 10 -10 16 8 13 22 13 30 -1z m448 -7 c19 -21 11 -38 -10
-20 -7 6 -17 7 -21 3 -4 -4 -1 -10 6 -12 6 -3 12 -16 12 -29 0 -18 5 -24 23
-24 41 0 64 -41 31 -54 -21 -8 -54 2 -54 16 0 5 7 7 16 4 14 -5 15 -4 4 8 -6
9 -21 14 -32 13 -15 -1 -27 10 -44 42 -34 62 -35 59 42 70 6 0 18 -7 27 -17z
m-143 -82 c0 -5 -4 -10 -10 -10 -5 0 -10 -7 -10 -15 0 -8 9 -15 20 -15 18 0
19 -3 10 -20 -8 -16 -8 -20 4 -20 8 0 16 5 18 12 3 7 10 8 17 4 11 -7 11 -10
0 -17 -12 -8 -12 -11 1 -18 12 -9 12 -11 -3 -17 -11 -4 -25 0 -36 10 -10 9
-22 16 -27 16 -9 0 -34 46 -34 63 0 10 30 36 43 37 4 0 7 -4 7 -10z m0 -135
c0 -8 -9 -15 -20 -15 -11 0 -20 7 -20 15 0 8 9 15 20 15 11 0 20 -7 20 -15z"/>
<path d="M3983 9834 c-7 -19 29 -54 56 -54 10 0 22 7 25 16 9 22 8 24 -9 24
-9 0 -18 7 -21 15 -8 20 -43 19 -51 -1z"/>
<path d="M7377 10223 c-12 -11 -8 -23 8 -23 9 0 15 -9 15 -22 0 -30 13 -14 17
22 2 24 -1 30 -15 30 -10 0 -22 -3 -25 -7z"/>
<path d="M7256 10178 c4 -24 11 -44 16 -46 13 -6 9 -32 -5 -32 -14 0 -43 -78
-33 -88 7 -6 5 -9 34 48 26 53 28 85 6 128 -21 43 -26 40 -18 -10z"/>
<path d="M8170 10176 c0 -9 5 -16 10 -16 6 0 10 4 10 9 0 6 -4 13 -10 16 -5 3
-10 -1 -10 -9z"/>
<path d="M7790 10170 c-13 -8 -13 -10 2 -10 9 0 20 5 23 10 8 13 -5 13 -25 0z"/>
<path d="M8333 10155 c16 -14 33 -22 39 -19 12 8 2 17 -37 32 l-30 12 28 -25z"/>
<path d="M7745 10140 c-3 -5 -2 -10 4 -10 5 0 13 5 16 10 3 6 2 10 -4 10 -5 0
-13 -4 -16 -10z"/>
<path d="M8421 10106 c14 -13 109 -55 109 -48 0 10 -81 52 -100 52 -7 0 -11
-2 -9 -4z"/>
<path d="M7401 10038 c0 -31 -4 -64 -8 -74 -4 -11 -2 -15 4 -11 16 10 22 57
13 102 -8 39 -8 39 -9 -17z"/>
<path d="M8548 10043 c7 -3 16 -2 19 1 4 3 -2 6 -13 5 -11 0 -14 -3 -6 -6z"/>
<path d="M8590 10035 c-19 -23 -8 -26 20 -5 19 15 21 20 9 20 -9 0 -22 -7 -29
-15z"/>
<path d="M8834 9965 c31 -44 73 -104 93 -133 20 -29 38 -50 41 -48 2 3 -16 35
-42 71 -25 36 -46 69 -46 73 0 4 -23 32 -51 62 l-51 55 56 -80z"/>
<path d="M7645 9983 c17 -33 10 -46 -20 -39 -15 4 -29 -2 -46 -20 l-24 -27 50
8 c28 5 58 8 68 9 14 0 16 6 11 31 -6 30 -30 65 -45 65 -4 0 -2 -12 6 -27z"/>
<path d="M7216 9958 c-9 -21 -16 -44 -16 -52 0 -8 -4 -17 -9 -20 -5 -3 -14
-21 -20 -38 l-11 -33 20 23 c22 27 63 130 56 146 -2 6 -11 -6 -20 -26z"/>
<path d="M2886 9884 c-9 -24 -7 -28 9 -14 17 14 20 30 6 30 -5 0 -12 -7 -15
-16z"/>
<path d="M7326 9875 c-11 -8 -17 -17 -14 -20 2 -3 13 4 23 15 21 23 18 25 -9
5z"/>
<path d="M2860 9775 c0 -8 2 -15 4 -15 2 0 6 7 10 15 3 8 1 15 -4 15 -6 0 -10
-7 -10 -15z"/>
<path d="M7970 9780 c0 -6 -6 -10 -12 -9 -30 4 -49 -2 -46 -13 5 -13 46 -19
54 -7 2 5 12 5 20 2 12 -4 15 -1 13 12 -4 20 -29 33 -29 15z"/>
<path d="M8480 9780 c0 -5 5 -10 10 -10 6 0 10 5 10 10 0 6 -4 10 -10 10 -5 0
-10 -4 -10 -10z"/>
<path d="M7790 9739 c0 -19 2 -20 17 -8 9 8 25 13 36 11 12 -2 17 1 13 7 -4 6
-20 11 -37 11 -23 0 -29 -4 -29 -21z"/>
<path d="M7080 9740 c0 -6 -15 -27 -32 -46 -38 -41 -52 -63 -45 -70 5 -5 97
109 97 120 0 3 -4 6 -10 6 -5 0 -10 -5 -10 -10z"/>
<path d="M2888 9723 c7 -3 16 -2 19 1 4 3 -2 6 -13 5 -11 0 -14 -3 -6 -6z"/>
<path d="M8323 9702 c-36 -17 -43 -32 -15 -32 18 0 60 36 51 44 -2 2 -19 -3
-36 -12z"/>
<path d="M8930 9665 c-20 -24 -6 -28 15 -5 10 11 13 20 8 20 -6 0 -16 -7 -23
-15z"/>
<path d="M3563 9545 c-3 -9 -3 -18 0 -21 9 -9 27 6 27 22 0 19 -19 18 -27 -1z"/>
<path d="M3487 9473 c-4 -3 -7 -11 -7 -17 0 -6 5 -5 12 2 6 6 9 14 7 17 -3 3
-9 2 -12 -2z"/>
<path d="M5328 9435 c11 -16 40 -48 64 -70 40 -37 41 -37 12 -5 -17 19 -45 51
-64 70 -29 32 -31 32 -12 5z"/>
<path d="M3648 9368 c23 -23 39 -20 29 7 -4 8 -17 15 -29 15 l-22 0 22 -22z"/>
<path d="M7315 9343 c4 -16 11 -52 16 -82 9 -60 79 -211 115 -250 13 -14 27
-34 30 -43 3 -10 12 -18 20 -18 8 0 19 -11 24 -24 5 -13 21 -36 37 -50 15 -14
35 -50 45 -78 16 -52 16 -52 17 -17 1 20 9 47 20 60 18 24 18 24 -38 126 -55
100 -57 102 -91 103 -67 0 -87 26 -121 155 -10 39 -21 81 -25 95 -13 47 -61
69 -49 23z"/>
<path d="M3692 9338 c-14 -14 -16 -68 -2 -68 9 0 26 67 18 75 -2 3 -10 -1 -16
-7z"/>
<path d="M7958 9294 c-3 -3 9 -22 27 -42 33 -36 84 -166 100 -256 4 -23 18
-51 36 -68 l29 -30 0 49 c0 27 6 55 13 62 10 11 10 13 0 7 -22 -12 -33 3 -22
31 8 23 8 24 -6 13 -12 -10 -15 -10 -15 3 0 8 5 17 11 19 13 4 -140 216 -157
217 -6 1 -13 -2 -16 -5z"/>
<path d="M3750 9244 c0 -8 5 -12 10 -9 6 4 8 11 5 16 -9 14 -15 11 -15 -7z"/>
<path d="M3706 9241 c-4 -5 -2 -12 3 -15 5 -4 12 -2 15 3 4 5 2 12 -3 15 -5 4
-12 2 -15 -3z"/>
<path d="M8460 9240 c0 -5 7 -13 15 -17 8 -5 19 -23 24 -40 7 -25 6 -35 -8
-48 -11 -9 -26 -13 -37 -9 -17 5 -17 4 2 -13 11 -10 29 -40 39 -68 10 -27 22
-56 28 -62 15 -20 30 -15 24 7 -3 13 0 20 9 20 23 0 16 24 -16 55 -16 16 -30
35 -30 43 0 7 16 33 35 56 19 24 35 45 35 47 0 2 -14 5 -31 6 -18 1 -39 9 -49
18 -19 17 -40 20 -40 5z"/>
<path d="M3796 9201 c-31 -32 -32 -41 -8 -41 10 0 45 -13 77 -30 121 -62 146
-27 35 47 l-78 51 -26 -27z"/>
<path d="M3722 9198 c5 -15 28 -23 28 -10 0 5 -7 13 -16 16 -10 4 -14 1 -12
-6z"/>
<path d="M5605 9200 c3 -5 8 -10 11 -10 2 0 4 5 4 10 0 6 -5 10 -11 10 -5 0
-7 -4 -4 -10z"/>
<path d="M2626 9125 c10 -8 24 -15 30 -15 19 0 74 -31 74 -41 0 -5 10 -9 23
-9 22 1 22 1 2 16 -11 9 -42 27 -70 40 -57 27 -90 32 -59 9z"/>
<path d="M5735 9130 c3 -5 14 -10 23 -10 15 0 15 2 2 10 -20 13 -33 13 -25 0z"/>
<path d="M5790 9111 c8 -6 22 -11 30 -11 8 0 32 -9 52 -20 37 -19 112 -30 124
-17 4 4 -13 7 -38 7 -30 0 -54 7 -70 20 -14 10 -45 22 -69 25 -33 5 -40 4 -29
-4z"/>
<path d="M5910 9110 c0 -5 5 -10 11 -10 5 0 7 5 4 10 -3 6 -8 10 -11 10 -2 0
-4 -4 -4 -10z"/>
<path d="M7624 9095 c-4 -8 -17 -15 -30 -15 -13 0 -24 -4 -24 -10 0 -5 3 -10
8 -10 17 0 102 35 102 42 0 15 -51 8 -56 -7z"/>
<path d="M2330 9075 c-8 -9 -30 -15 -59 -15 -61 -1 -213 -42 -279 -76 -54 -28
-159 -109 -182 -141 -14 -19 -40 -49 -58 -66 -36 -34 -102 -158 -102 -192 0
-12 -9 -30 -20 -40 -28 -26 -26 -111 5 -199 l24 -68 -21 -28 c-17 -24 -20 -37
-14 -77 4 -26 8 -73 9 -104 1 -41 9 -66 28 -95 21 -31 24 -44 16 -61 -21 -47
32 -131 73 -118 11 4 20 2 20 -3 0 -4 15 -26 33 -48 19 -21 32 -44 30 -50 -5
-15 44 -54 69 -54 23 0 70 -23 87 -44 7 -8 27 -18 44 -21 18 -4 41 -15 52 -26
11 -10 41 -27 65 -38 53 -23 180 -40 180 -23 0 7 23 11 58 11 173 -1 328 38
383 97 12 13 29 24 36 24 22 0 94 49 147 99 26 25 44 37 38 26 -19 -36 -108
-122 -166 -160 -15 -10 -25 -20 -22 -22 6 -7 88 51 128 90 86 85 186 228 218
314 18 48 18 56 6 69 -19 18 -6 60 18 58 10 -1 18 8 22 25 3 14 8 32 10 39 3
10 -2 11 -18 7 -19 -7 -20 -5 -14 25 3 18 6 39 6 47 0 12 3 13 14 4 12 -10 15
-8 18 11 8 57 -13 226 -37 301 -24 73 -39 108 -91 208 -27 51 -86 128 -104
134 -8 3 -23 17 -32 32 -17 27 -17 27 -18 5 0 -18 42 -74 100 -132 3 -3 14
-22 24 -42 11 -21 23 -38 28 -38 4 0 8 -5 8 -10 0 -6 8 -29 19 -53 35 -81 42
-101 53 -151 13 -67 17 -97 22 -181 l4 -70 -14 75 c-8 41 -15 85 -16 98 0 12
-4 22 -9 22 -5 0 -9 8 -9 17 0 10 -6 35 -14 58 -8 22 -22 65 -31 95 -19 62
-135 224 -192 268 -60 46 -155 97 -298 162 -86 40 -251 54 -275 25z m-414
-267 c-10 -6 -20 -7 -24 -3 -9 8 20 25 31 18 5 -3 2 -10 -7 -15z m321 -50
c-21 -7 -32 -7 -40 1 -8 8 0 11 29 10 39 -1 39 -1 11 -11z m-389 -30 c-3 -23
-48 -41 -48 -20 0 24 14 42 32 42 14 0 19 -6 16 -22z m102 -23 c0 -8 -9 -19
-20 -25 -24 -13 -27 2 -4 24 19 20 24 20 24 1z m190 -21 c0 -3 -4 -14 -10 -24
-10 -19 -77 -47 -87 -36 -9 8 39 45 60 46 9 0 17 5 17 10 0 6 5 10 10 10 6 0
10 -3 10 -6z m192 -14 c7 -11 18 -20 24 -20 12 0 25 -24 21 -37 -4 -13 -42
-14 -65 -1 -25 13 -55 61 -45 72 14 13 54 5 65 -14z m-422 -44 c0 -11 -19 -15
-25 -6 -3 5 1 10 9 10 9 0 16 -2 16 -4z m654 -5 c8 -13 -4 -42 -15 -35 -12 7
-12 44 0 44 6 0 12 -4 15 -9z m-726 -27 c31 -6 99 -61 88 -71 -3 -3 -12 0 -21
7 -22 19 -18 -4 5 -25 11 -10 17 -22 13 -28 -7 -12 -43 28 -43 49 0 8 -14 17
-30 21 -17 3 -38 15 -46 27 -11 14 -18 17 -21 9 -3 -7 -9 -13 -14 -13 -4 0 -6
7 -3 15 7 16 24 18 72 9z m362 -23 c13 -24 -1 -35 -33 -25 -24 7 -38 24 -31
36 10 16 53 8 64 -11z m-420 -31 c3 -4 13 -9 22 -11 13 -3 15 -8 8 -19 -9 -13
-12 -13 -21 3 -7 11 -22 17 -49 17 -37 0 -49 8 -34 23 8 7 67 -3 74 -13z m580
-86 c0 -8 -2 -14 -5 -14 -6 0 -35 56 -35 67 1 14 40 -39 40 -53z m80 37 c0
-18 -33 -35 -44 -23 -7 6 23 42 36 42 4 0 8 -8 8 -19z m198 -18 c22 -5 28 -26
16 -57 -7 -19 -24 -21 -24 -3 0 7 -11 23 -25 35 -29 25 -34 48 -7 37 9 -4 27
-10 40 -12z m-43 -54 c15 -15 17 -21 7 -31 -9 -9 -15 -9 -24 0 -7 7 -25 12
-41 12 -22 0 -28 4 -23 16 3 9 6 20 6 26 0 15 52 0 75 -23z m-521 -15 c21 -20
12 -34 -22 -34 -32 1 -67 24 -57 39 10 16 61 13 79 -5z m-184 -12 c0 -13 -12
-22 -22 -16 -10 6 -1 24 13 24 5 0 9 -4 9 -8z m523 -12 c9 -11 17 -24 17 -29
0 -5 7 -11 15 -15 8 -3 15 -11 15 -17 0 -11 -81 56 -88 73 -7 16 24 7 41 -12z
m-187 -35 c10 -19 9 -25 -4 -30 -25 -9 -55 39 -36 58 10 10 29 -2 40 -28z
m-389 -17 c-3 -8 -6 -5 -6 6 -1 11 2 17 5 13 3 -3 4 -12 1 -19z m1073 7 c0
-10 -53 -26 -67 -20 -24 9 -3 25 33 25 19 0 34 -2 34 -5z m-594 -103 c-10 -9
-56 32 -56 51 0 18 4 16 30 -13 16 -18 28 -35 26 -38z m514 58 c0 -5 -4 -10
-10 -10 -5 0 -10 5 -10 10 0 6 5 10 10 10 6 0 10 -4 10 -10z m-675 -40 c7 -11
-5 -63 -13 -56 -3 3 -6 19 -6 36 -1 30 7 39 19 20z m426 0 c26 -15 24 -30 -5
-30 -25 0 -51 22 -39 33 9 10 21 9 44 -3z m-571 -10 c0 -5 -4 -10 -9 -10 -6 0
-13 5 -16 10 -3 6 1 10 9 10 9 0 16 -4 16 -10z m-275 -10 c3 -5 2 -10 -4 -10
-5 0 -13 5 -16 10 -3 6 -2 10 4 10 5 0 13 -4 16 -10z m155 -35 c0 -8 7 -15 15
-15 20 0 19 -17 -1 -37 -13 -14 -17 -14 -25 -2 -30 50 -52 63 -62 37 -2 -7 -7
-10 -11 -7 -12 11 6 39 25 39 10 0 19 5 19 10 0 7 6 7 20 0 11 -6 20 -17 20
-25z m-190 9 c0 4 14 -8 30 -26 27 -30 39 -58 24 -58 -16 0 -82 44 -93 62 -10
17 -10 22 0 29 7 4 19 3 26 -3 7 -6 13 -7 13 -4z m1190 12 c0 -3 -4 -8 -10
-11 -5 -3 -10 -1 -10 4 0 6 5 11 10 11 6 0 10 -2 10 -4z m-810 -22 c0 -9 -5
-14 -12 -12 -18 6 -21 28 -4 28 9 0 16 -7 16 -16z m842 -6 c-7 -7 -12 -8 -12
-2 0 14 12 26 19 19 2 -3 -1 -11 -7 -17z m-423 -14 c15 -34 5 -63 -26 -75 -45
-17 -56 -12 -36 15 10 13 24 21 30 19 15 -6 18 23 3 32 -10 6 -3 35 9 35 4 0
13 -12 20 -26z m295 -10 c-36 -19 -37 -18 -18 11 13 20 19 23 30 14 12 -10 10
-14 -12 -25z m-414 12 c0 -3 -4 -8 -10 -11 -5 -3 -10 -1 -10 4 0 6 5 11 10 11
6 0 10 -2 10 -4z m314 -4 c2 -4 7 -24 11 -45 6 -30 4 -37 -9 -37 -10 0 -16 9
-16 23 0 12 -3 32 -6 45 -6 21 9 32 20 14z m-518 -42 c18 0 18 -34 0 -49 -22
-18 -46 -2 -46 31 0 23 4 29 16 24 9 -3 22 -6 30 -6z m622 -10 c-13 -21 -29
-22 -35 -3 -4 10 11 17 40 22 4 0 2 -8 -5 -19z m-178 -40 c0 -27 -4 -50 -10
-50 -5 0 -10 23 -10 50 0 28 5 50 10 50 6 0 10 -22 10 -50z m-223 18 c-3 -8
-6 -5 -6 6 -1 11 2 17 5 13 3 -3 4 -12 1 -19z m-632 -12 c38 -16 44 -30 18
-40 -16 -6 -63 28 -63 46 0 11 5 10 45 -6z m175 10 c0 -11 -19 -15 -25 -6 -3
5 1 10 9 10 9 0 16 -2 16 -4z m370 -27 c0 -10 -4 -19 -10 -19 -5 0 -10 12 -10
26 0 14 4 23 10 19 6 -3 10 -15 10 -26z m-320 6 c7 -9 10 -18 7 -21 -6 -7 -47
18 -47 28 0 14 27 9 40 -7z m312 -57 c-7 -7 -12 -8 -12 -2 0 14 12 26 19 19 2
-3 -1 -11 -7 -17z m58 1 c0 -5 -7 -9 -15 -9 -15 0 -20 12 -9 23 8 8 24 -1 24
-14z m-430 -32 c13 -5 13 -6 -1 -6 -17 -1 -59 31 -59 44 0 5 10 -1 23 -12 12
-11 29 -23 37 -26z m578 34 c18 -11 12 -41 -10 -55 -23 -14 -31 -3 -23 33 7
33 12 36 33 22z m225 -20 c28 -11 57 -38 57 -53 0 -14 -71 0 -92 19 -9 8 -14
21 -11 29 6 16 13 17 46 5z m-183 -11 c0 -5 -4 -10 -10 -10 -5 0 -10 5 -10 10
0 6 5 10 10 10 6 0 10 -4 10 -10z m582 -22 c-7 -7 -12 -8 -12 -2 0 14 12 26
19 19 2 -3 -1 -11 -7 -17z m-1157 2 c3 -5 2 -10 -4 -10 -5 0 -13 5 -16 10 -3
6 -2 10 4 10 5 0 13 -4 16 -10z m255 -6 c0 -3 -9 -17 -19 -30 -22 -28 -38 -16
-21 16 10 18 40 29 40 14z m-316 -20 c5 -14 4 -15 -9 -4 -17 14 -19 20 -6 20
5 0 12 -7 15 -16z m-61 -9 c18 -8 20 -15 11 -39 -8 -20 -38 -21 -57 -2 -8 8
-22 14 -32 13 -10 -1 -20 4 -22 11 -3 6 2 12 11 12 9 0 16 4 16 10 0 9 42 7
73 -5z m415 -22 c-9 -10 -18 -25 -21 -33 -4 -11 -6 -10 -6 4 -1 11 6 28 16 38
21 23 32 14 11 -9z m-138 8 c0 -5 -7 -14 -15 -21 -16 -14 -18 -10 -9 14 6 17
24 22 24 7z m505 -28 c40 -30 29 -45 -12 -17 -21 14 -51 28 -68 31 -25 5 -26
7 -10 13 23 8 55 -2 90 -27z m-287 -33 c10 -17 10 -24 -4 -45 -16 -24 -44 -24
-44 0 0 21 19 65 27 65 5 0 14 -9 21 -20z m212 -13 c29 -20 44 -22 34 -4 -4 6
5 -1 20 -17 15 -15 26 -30 24 -31 -5 -6 -138 59 -138 67 0 12 33 4 60 -15z
m-411 -26 c14 -25 -23 -42 -70 -32 l-34 7 40 21 c51 26 52 26 64 4z m281 11
c0 -13 86 -72 104 -72 9 0 16 -4 16 -10 0 -5 8 -10 18 -10 10 0 23 -5 30 -12
8 -8 5 -15 -15 -25 -14 -7 -27 -12 -28 -11 -1 2 -8 13 -14 26 -7 12 -16 20
-20 17 -5 -2 -19 4 -32 14 -13 10 -29 16 -34 14 -6 -2 -18 10 -28 26 -19 33
-22 51 -7 51 6 0 10 -4 10 -8z m240 -2 c0 -5 -2 -10 -4 -10 -3 0 -8 5 -11 10
-3 6 -1 10 4 10 6 0 11 -4 11 -10z m370 -30 c-6 -12 -14 -20 -17 -17 -2 3 1
14 8 26 17 26 24 19 9 -9z m-1075 -21 c0 -24 -5 -35 -18 -37 -23 -5 -32 23
-18 54 15 35 36 25 36 -17z m765 -23 c0 -3 -4 -8 -10 -11 -5 -3 -10 -1 -10 4
0 6 5 11 10 11 6 0 10 -2 10 -4z m-594 -46 c8 0 14 -4 14 -10 0 -15 -22 -12
-45 7 -18 14 -18 15 -2 9 10 -3 25 -6 33 -6z m394 -10 c0 -5 -4 -10 -9 -10 -6
0 -13 5 -16 10 -3 6 1 10 9 10 9 0 16 -4 16 -10z m200 0 c13 -8 12 -10 -2 -10
-10 0 -18 -3 -18 -8 0 -4 -18 -7 -41 -7 -24 0 -44 -6 -49 -15 -5 -8 -13 -11
-17 -6 -4 4 6 19 22 32 31 25 79 31 105 14z m-630 -42 c0 -11 -5 -10 -35 4
-14 6 -25 17 -25 24 0 10 8 9 30 -4 16 -9 30 -20 30 -24z m250 -3 c14 -19 31
-35 39 -35 7 0 11 -6 7 -15 -3 -8 -1 -15 4 -15 6 0 10 -7 10 -15 0 -25 -39 5
-55 42 -8 18 -29 42 -47 53 -32 19 -32 20 -8 20 17 0 33 -12 50 -35z m-400 9
c0 -2 -9 -4 -20 -4 -11 0 -20 4 -20 9 0 5 9 7 20 4 11 -3 20 -7 20 -9z m360
-49 c0 -12 5 -26 12 -33 9 -9 7 -13 -5 -18 -18 -7 -35 8 -57 49 -12 24 -12 30
0 37 19 12 50 -10 50 -35z m205 5 c3 -5 1 -10 -4 -10 -6 0 -11 5 -11 10 0 6 2
10 4 10 3 0 8 -4 11 -10z m-275 -26 c0 -8 -4 -12 -10 -9 -5 3 -10 10 -10 16 0
5 5 9 10 9 6 0 10 -7 10 -16z m100 -44 c0 -5 -5 -10 -11 -10 -5 0 -7 5 -4 10
3 6 8 10 11 10 2 0 4 -4 4 -10z"/>
<path d="M2780 9046 c0 -7 102 -68 106 -63 6 5 -82 67 -95 67 -6 0 -11 -2 -11
-4z"/>
<path d="M6390 9000 c0 -5 4 -10 9 -10 6 0 13 5 16 10 3 6 -1 10 -9 10 -9 0
-16 -4 -16 -10z"/>
<path d="M2900 8970 c0 -5 5 -10 11 -10 5 0 7 5 4 10 -3 6 -8 10 -11 10 -2 0
-4 -4 -4 -10z"/>
<path d="M6398 8963 c-10 -2 -18 -11 -18 -19 0 -8 -7 -17 -15 -20 -23 -9 -7
-24 24 -24 27 0 61 26 61 47 0 9 -27 26 -33 22 -1 -1 -10 -3 -19 -6z"/>
<path d="M6367 8813 c12 -18 19 -21 34 -12 31 16 23 35 -15 35 -33 0 -33 -1
-19 -23z"/>
<path d="M9315 8759 c-185 -41 -348 -131 -481 -266 -61 -61 -121 -149 -110
-160 3 -4 6 -2 6 3 0 17 109 135 160 173 19 14 42 33 50 41 23 23 67 50 84 50
8 0 16 4 18 8 5 12 114 56 228 92 58 18 112 39 120 46 8 6 32 10 53 9 20 -2
40 1 43 6 7 11 -117 10 -171 -2z"/>
<path d="M9265 8636 c-278 -51 -510 -260 -611 -551 -25 -73 -28 -93 -28 -225
0 -166 12 -226 55 -269 30 -31 36 -47 18 -53 -5 -2 -7 -11 -4 -20 4 -9 12 -15
19 -12 7 3 17 -6 23 -18 6 -13 38 -58 72 -100 46 -58 82 -91 147 -133 138 -90
147 -95 168 -79 10 7 15 18 11 25 -5 7 -3 9 6 5 8 -3 22 -9 32 -12 21 -8 23
-54 3 -54 -8 0 -18 5 -21 10 -3 6 -11 10 -18 10 -6 0 -1 -7 11 -16 13 -9 29
-13 36 -11 8 3 18 1 22 -3 5 -5 30 -12 54 -14 25 -3 82 -12 127 -21 82 -16
123 -11 123 16 0 6 5 7 10 4 6 -3 22 2 38 13 15 11 38 22 52 26 l25 7 -24 -21
c-27 -23 -23 -37 6 -21 15 8 38 17 63 26 3 1 18 7 33 13 16 7 35 12 43 12 8 0
12 5 9 10 -3 6 -3 19 0 31 6 16 12 19 36 14 19 -4 29 -3 29 5 0 8 9 10 26 6
34 -9 53 8 60 55 6 34 10 39 32 39 l26 0 -34 35 c-19 19 -39 35 -46 35 -7 0
-14 6 -17 13 -3 6 -5 1 -4 -13 0 -14 9 -35 20 -47 11 -13 15 -23 9 -23 -12 0
-75 57 -83 75 -2 6 -8 8 -14 6 -5 -2 -23 -4 -40 -5 -30 -1 -51 -25 -32 -38 7
-4 7 -11 -1 -21 -10 -12 -8 -14 13 -14 35 0 44 -12 21 -29 -25 -18 -36 -18
-36 0 0 8 -8 13 -17 12 -15 -1 -18 7 -18 42 0 36 -4 45 -30 62 -38 25 -41 25
-49 -2 -6 -21 -7 -22 -20 -6 -12 17 -15 17 -45 2 -24 -12 -31 -21 -28 -35 3
-12 0 -19 -10 -19 -8 0 -12 4 -8 9 3 5 1 12 -5 16 -5 3 -10 19 -10 35 0 16 -5
32 -10 35 -13 8 6 46 22 42 21 -4 20 31 -1 38 -28 9 -37 1 -45 -36 -4 -22 -1
-40 10 -58 12 -17 14 -26 6 -29 -7 -2 -12 -19 -12 -37 0 -34 -13 -45 -51 -45
-24 0 -24 8 2 36 18 19 19 25 7 44 -10 18 -10 24 0 27 6 3 12 11 12 19 0 17
-8 18 -24 1 -8 -7 -26 -13 -42 -12 -22 0 -29 5 -27 18 1 12 -4 17 -14 13 -17
-7 -46 19 -40 37 2 6 -6 16 -17 22 -26 13 -33 57 -12 74 18 15 40 5 32 -15 -3
-9 2 -14 14 -14 11 0 20 -4 20 -10 0 -19 33 -10 57 16 27 29 23 45 -7 26 -27
-17 -32 -15 -25 7 4 15 2 18 -12 15 -14 -4 -21 4 -29 31 -13 40 -1 56 18 25 7
-11 18 -20 25 -20 21 0 15 16 -12 34 -14 9 -25 23 -25 32 0 8 -6 27 -14 42
-18 35 -4 56 42 66 17 4 34 12 37 17 9 13 53 11 58 -3 2 -9 4 -8 3 1 -1 8 -14
19 -29 24 -24 8 -33 5 -52 -13 -22 -20 -25 -21 -31 -6 -3 9 -13 16 -21 16 -8
0 -13 8 -12 18 1 9 -1 25 -6 35 -4 11 -3 23 3 29 15 15 42 -7 42 -33 0 -22 11
-24 28 -7 14 14 16 32 3 24 -5 -3 -11 2 -13 12 -3 10 -20 26 -39 35 -19 9 -32
17 -29 17 50 10 62 7 70 -13 10 -26 11 -25 14 28 1 23 -4 47 -13 58 -12 15
-12 17 2 17 23 0 22 20 0 20 -10 0 -26 7 -36 14 -16 12 -15 14 9 14 35 0 76
23 70 39 -6 15 10 18 19 3 3 -6 -1 -18 -11 -27 -11 -12 -13 -18 -5 -21 7 -2
23 8 36 22 37 40 61 33 30 -8 -17 -23 -19 -36 -5 -36 6 0 10 6 10 13 0 7 17
33 37 58 21 24 28 36 17 27 -20 -17 -21 -17 -42 12 -22 29 -28 50 -16 50 4 0
13 -8 20 -17 8 -11 13 -13 14 -5 0 16 40 56 48 48 3 -4 0 -12 -6 -18 -17 -17
-15 -28 4 -28 15 0 14 -10 -3 -57 -3 -7 2 -10 14 -7 14 4 18 14 16 47 -1 34 4
47 27 68 19 17 33 23 42 18 23 -15 38 -10 38 12 0 17 -4 20 -22 15 -13 -4 -35
-9 -50 -12 -17 -4 -25 -11 -21 -20 7 -18 -18 -18 -43 0 -19 15 -19 15 1 30 11
8 28 13 38 10 19 -6 24 12 5 19 -8 4 -4 8 10 12 12 4 22 12 22 19 0 6 5 4 10
-4 6 -10 12 -12 19 -5 8 8 2 21 -19 43 l-29 33 20 20 c19 19 21 20 33 3 8 -11
21 -15 34 -12 18 5 19 4 9 -13 -6 -10 -15 -19 -19 -19 -4 0 -5 -7 -2 -15 4 -8
1 -21 -5 -28 -8 -11 -3 -23 23 -52 34 -38 58 -41 49 -5 -4 15 0 20 13 21 11 0
14 3 7 5 -7 3 -22 0 -34 -7 -19 -10 -25 -9 -36 6 -8 13 -9 22 -3 30 6 7 8 20
4 29 -4 10 -1 16 9 16 8 0 18 7 21 16 4 10 14 14 25 11 13 -3 21 2 24 15 5 17
2 18 -23 13 -20 -4 -29 -2 -34 10 -6 18 16 30 39 21 9 -3 15 0 15 9 0 8 -12
18 -27 21 -16 4 -33 11 -39 16 -6 4 -19 5 -29 2 -10 -4 -21 -1 -26 7 -7 11
-11 11 -17 1 -7 -10 -15 -10 -36 -2 -15 5 -25 14 -22 19 10 15 -21 21 -132 26
-64 2 -135 -1 -177 -9z m282 -56 c0 -19 -5 -30 -15 -30 -9 0 -12 6 -8 16 3 9
6 22 6 30 0 8 4 14 8 14 5 0 9 -13 9 -30z m53 -32 c0 -16 -3 -19 -11 -11 -6 6
-8 16 -5 22 11 17 16 13 16 -11z m57 6 c-3 -3 -12 -4 -19 -1 -8 3 -5 6 6 6 11
1 17 -2 13 -5z m19 -31 c-11 -11 -17 4 -9 23 7 18 8 18 11 1 2 -10 1 -21 -2
-24z m-130 -31 c-17 -16 -18 -16 -5 5 7 12 15 20 18 17 3 -2 -3 -12 -13 -22z
m-69 -49 c-3 -3 -11 -2 -17 2 -8 5 -7 11 2 22 12 15 13 14 16 -1 2 -10 1 -20
-1 -23z m43 27 c0 -5 -4 -10 -10 -10 -5 0 -10 5 -10 10 0 6 5 10 10 10 6 0 10
-4 10 -10z m70 -22 c18 -22 17 -23 -11 -40 -36 -22 -39 -22 -39 -3 0 8 5 15
10 15 6 0 10 11 10 25 0 31 7 31 30 3z m-220 -35 c0 -13 -3 -13 -15 -3 -8 7
-15 16 -15 21 0 5 7 6 15 3 8 -4 15 -13 15 -21z m160 12 c0 -8 -4 -15 -10 -15
-5 0 -10 7 -10 15 0 8 5 15 10 15 6 0 10 -7 10 -15z m-50 -24 c0 -5 -8 -17
-17 -27 -20 -20 -32 -1 -13 21 14 17 30 20 30 6z m40 -22 c0 -5 -4 -9 -10 -9
-5 0 -10 7 -10 16 0 8 5 12 10 9 6 -3 10 -10 10 -16z m-287 -35 c9 -10 -4 -34
-19 -34 -8 0 -14 9 -14 20 0 19 19 27 33 14z m270 -20 c9 -4 17 -10 17 -15 0
-12 -14 -11 -27 2 -9 9 -19 6 -42 -10 -22 -16 -32 -18 -37 -9 -4 6 -3 13 3 15
6 2 19 10 29 18 10 8 24 12 29 10 6 -3 18 -8 28 -11z m-102 -74 c10 0 19 -4
19 -10 0 -5 -7 -10 -15 -10 -8 0 -15 -4 -15 -10 0 -11 -33 -14 -42 -4 -12 11
5 45 19 40 8 -3 23 -6 34 -6z m69 -25 c0 -8 -4 -15 -10 -15 -5 0 -10 7 -10 15
0 8 5 15 10 15 6 0 10 -7 10 -15z m-190 -37 c0 -14 -18 -9 -24 8 -11 28 -6 39
9 20 8 -11 15 -23 15 -28z m-50 -43 c7 -8 19 -15 26 -15 8 0 11 -6 8 -15 -8
-19 -67 -20 -83 -1 -15 18 -4 46 19 46 10 0 23 -7 30 -15z m-20 -99 c0 -21
-20 -30 -33 -17 -9 9 -8 14 3 21 21 14 30 12 30 -4z m90 4 c0 -5 -2 -10 -4
-10 -3 0 -8 5 -11 10 -3 6 -1 10 4 10 6 0 11 -4 11 -10z m-160 -35 c0 -8 -9
-19 -20 -25 -15 -8 -20 -8 -20 3 0 14 19 37 32 37 4 0 8 -7 8 -15z m100 -21
c0 -17 -22 -14 -28 4 -2 7 3 12 12 12 9 0 16 -7 16 -16z m-120 -55 c9 -16 14
-18 26 -8 17 14 16 15 31 -29 10 -27 9 -34 -3 -39 -14 -5 -59 26 -50 34 7 7
-27 43 -41 43 -7 0 -13 5 -13 10 0 18 39 10 50 -11z m133 14 c4 -3 0 -17 -8
-30 -9 -13 -13 -28 -10 -33 3 -6 -1 -10 -9 -10 -9 0 -16 4 -16 9 0 5 -7 11
-16 13 -14 3 -13 7 6 31 21 26 40 34 53 20z m-452 -64 c30 -33 34 -39 22 -39
-5 0 -21 16 -36 35 -35 43 -25 46 14 4z m469 -59 c0 -5 -4 -10 -10 -10 -5 0
-10 5 -10 10 0 6 5 10 10 10 6 0 10 -4 10 -10z m8 -62 c31 -31 3 -56 -43 -38
-27 10 -27 11 -10 30 21 23 36 25 53 8z m-78 -12 c0 -3 -4 -8 -10 -11 -5 -3
-10 -1 -10 4 0 6 5 11 10 11 6 0 10 -2 10 -4z m50 -60 c0 -16 -14 -36 -26 -36
-14 0 -19 22 -7 33 7 8 33 10 33 3z m35 -56 c-5 -8 -11 -8 -17 -2 -6 6 -7 16
-3 22 5 8 11 8 17 2 6 -6 7 -16 3 -22z m-241 -81 c14 -11 43 -25 64 -31 56
-15 122 -50 122 -65 0 -7 5 -12 11 -10 6 1 13 -3 16 -9 5 -14 -31 -24 -69 -19
-24 3 -123 55 -105 55 4 0 -10 18 -32 40 -22 22 -44 40 -50 40 -6 0 -11 5 -11
10 0 17 26 11 54 -11z m599 -178 c-2 -11 2 -20 8 -18 6 1 14 -4 17 -12 3 -11
-2 -12 -24 -7 -37 10 -36 9 -28 40 7 31 30 29 27 -3z m-53 0 c0 -11 -4 -22 -9
-25 -11 -7 -23 22 -15 35 9 16 24 10 24 -10z m215 -1 c-3 -5 -18 -10 -33 -10
-21 0 -24 2 -12 10 20 13 53 13 45 0z m-435 -38 c0 -14 -23 -32 -42 -32 -23 0
-23 9 0 26 19 15 42 18 42 6z m468 -26 c3 -12 -1 -17 -10 -14 -7 3 -15 13 -16
22 -3 12 1 17 10 14 7 -3 15 -13 16 -22z m-158 -10 c0 -18 -15 -36 -30 -36
-22 0 -34 15 -25 30 6 9 55 15 55 6z m-263 -60 c-18 -27 -45 -32 -54 -10 -9
24 34 59 54 43 12 -10 12 -15 0 -33z m63 24 c0 -5 -2 -10 -4 -10 -3 0 -8 5
-11 10 -3 6 -1 10 4 10 6 0 11 -4 11 -10z m380 0 c0 -5 -4 -10 -10 -10 -5 0
-10 5 -10 10 0 6 5 10 10 10 6 0 10 -4 10 -10z m-263 -36 c8 -21 -23 -52 -38
-37 -14 14 -2 53 17 53 8 0 17 -7 21 -16z"/>
<path d="M8110 8574 c0 -14 31 -19 115 -17 64 2 67 2 60 13 -4 6 -11 8 -16 5
-5 -4 -14 -3 -19 0 -6 3 -39 8 -75 9 -50 3 -65 0 -65 -10z"/>
<path d="M9816 8515 c4 -8 10 -12 15 -9 14 8 10 24 -6 24 -9 0 -12 -6 -9 -15z"/>
<path d="M9845 8490 c-3 -5 -1 -10 4 -10 6 0 11 5 11 10 0 6 -2 10 -4 10 -3 0
-8 -4 -11 -10z"/>
<path d="M9773 8463 c-21 -8 -15 -18 12 -19 21 -2 24 1 14 12 -6 8 -12 14 -13
13 0 0 -7 -3 -13 -6z"/>
<path d="M9950 8390 c0 -5 5 -10 10 -10 6 0 10 5 10 10 0 6 -4 10 -10 10 -5 0
-10 -4 -10 -10z"/>
<path d="M9625 8380 c-3 -5 -1 -10 4 -10 6 0 11 5 11 10 0 6 -2 10 -4 10 -3 0
-8 -4 -11 -10z"/>
<path d="M9997 8263 c-4 -3 -7 -11 -7 -17 0 -6 5 -5 12 2 6 6 9 14 7 17 -3 3
-9 2 -12 -2z"/>
<path d="M10050 8200 c0 -5 5 -10 10 -10 6 0 10 5 10 10 0 6 -4 10 -10 10 -5
0 -10 -4 -10 -10z"/>
<path d="M9510 8154 c0 -8 5 -12 10 -9 6 3 10 10 10 16 0 5 -4 9 -10 9 -5 0
-10 -7 -10 -16z"/>
<path d="M10110 8146 c0 -9 7 -16 16 -16 9 0 14 5 12 12 -6 18 -28 21 -28 4z"/>
<path d="M5924 7836 c4 -176 9 -322 11 -326 2 -4 7 -63 10 -131 3 -68 10 -203
16 -299 5 -96 11 -201 12 -232 0 -32 5 -58 9 -58 4 0 8 7 8 15 0 8 5 15 10 15
6 0 10 -7 10 -15 0 -8 5 -15 10 -15 6 0 10 -7 10 -15 0 -8 5 -15 10 -15 8 0
18 582 12 670 -1 8 -2 162 -2 341 -1 179 -6 332 -11 340 -12 19 -12 16 -14
-171 -1 -85 -2 -163 -3 -172 0 -10 -1 -30 0 -45 0 -16 0 -46 -2 -68 -1 -22 -1
-89 0 -148 2 -73 0 -111 -8 -119 -7 -7 -12 -21 -13 -32 0 -12 -7 12 -14 53 -8
41 -13 135 -13 210 1 75 -2 172 -6 216 -4 44 -9 114 -11 155 -4 76 -18 146
-30 158 -4 4 -4 -137 -1 -312z m83 -668 c-3 -8 -6 -5 -6 6 -1 11 2 17 5 13 3
-3 4 -12 1 -19z m6 -41 c3 -8 1 -20 -4 -28 -6 -10 -9 -7 -9 14 0 29 5 35 13
14z m-3 -277 c0 -5 -4 -10 -10 -10 -5 0 -10 5 -10 10 0 6 5 10 10 10 6 0 10
-4 10 -10z"/>
<path d="M9420 8095 c0 -8 5 -15 10 -15 6 0 10 7 10 15 0 8 -4 15 -10 15 -5 0
-10 -7 -10 -15z"/>
<path d="M9380 8071 c0 -12 6 -21 16 -21 9 0 14 7 12 17 -5 25 -28 28 -28 4z"/>
<path d="M9420 8003 c1 -27 1 -27 15 -9 14 19 12 36 -6 36 -5 0 -9 -12 -9 -27z"/>
<path d="M10045 7970 c-3 -5 -1 -10 4 -10 6 0 11 5 11 10 0 6 -2 10 -4 10 -3
0 -8 -4 -11 -10z"/>
<path d="M10160 7959 c0 -5 5 -7 10 -4 6 3 10 8 10 11 0 2 -4 4 -10 4 -5 0
-10 -5 -10 -11z"/>
<path d="M9417 7930 c-4 -17 -2 -18 14 -9 22 11 25 29 5 29 -7 0 -16 -9 -19
-20z"/>
<path d="M10050 7927 c0 -18 21 -37 40 -37 13 1 12 3 -2 14 -10 7 -18 18 -18
25 0 6 -4 11 -10 11 -5 0 -10 -6 -10 -13z"/>
<path d="M10105 7921 c-6 -11 9 -23 19 -14 9 9 7 23 -3 23 -6 0 -12 -4 -16 -9z"/>
<path d="M1400 7903 c0 -5 7 -18 15 -29 12 -16 14 -16 15 -3 0 9 -7 22 -15 29
-8 7 -15 8 -15 3z"/>
<path d="M10170 7870 c0 -5 5 -10 10 -10 6 0 10 5 10 10 0 6 -4 10 -10 10 -5
0 -10 -4 -10 -10z"/>
<path d="M10020 7861 c0 -5 7 -12 16 -15 24 -9 28 -7 14 9 -14 17 -30 20 -30
6z"/>
<path d="M9470 7825 c-7 -8 -21 -15 -31 -15 -11 0 -19 -4 -19 -9 0 -6 16 -7
35 -4 23 4 35 2 35 -6 0 -6 5 -11 11 -11 8 0 8 4 -1 15 -6 8 -9 19 -6 24 11
16 -11 22 -24 6z"/>
<path d="M9348 7813 c-24 -6 -23 -23 1 -23 11 0 23 -4 26 -10 3 -5 13 -10 21
-10 12 0 12 4 -2 25 -9 14 -19 24 -23 24 -3 -1 -14 -3 -23 -6z"/>
<path d="M10170 7780 c0 -5 5 -10 10 -10 6 0 10 5 10 10 0 6 -4 10 -10 10 -5
0 -10 -4 -10 -10z"/>
<path d="M9990 7771 c0 -5 5 -13 10 -16 6 -3 10 -2 10 4 0 5 -4 13 -10 16 -5
3 -10 2 -10 -4z"/>
<path d="M10161 7734 c0 -11 3 -14 6 -6 3 7 2 16 -1 19 -3 4 -6 -2 -5 -13z"/>
<path d="M9442 7728 c-14 -14 -16 -38 -3 -38 5 0 14 7 21 15 17 20 0 41 -18
23z"/>
<path d="M9360 7720 c0 -5 5 -10 10 -10 6 0 10 5 10 10 0 6 -4 10 -10 10 -5 0
-10 -4 -10 -10z"/>
<path d="M10020 7686 c0 -9 30 -14 35 -6 4 6 -3 10 -14 10 -12 0 -21 -2 -21
-4z"/>
<path d="M9920 7630 c0 -5 5 -10 10 -10 6 0 10 5 10 10 0 6 -4 10 -10 10 -5 0
-10 -4 -10 -10z"/>
<path d="M9995 7630 c3 -5 8 -10 11 -10 2 0 4 5 4 10 0 6 -5 10 -11 10 -5 0
-7 -4 -4 -10z"/>
<path d="M10020 7620 c0 -5 5 -10 10 -10 6 0 10 5 10 10 0 6 -4 10 -10 10 -5
0 -10 -4 -10 -10z"/>
<path d="M10060 7598 c0 -4 5 -8 10 -8 21 0 25 -2 43 -17 9 -9 17 -11 17 -5 0
6 2 16 5 24 4 9 -6 13 -35 13 -22 1 -40 -3 -40 -7z"/>
<path d="M9945 7590 c-3 -5 -1 -10 4 -10 6 0 11 5 11 10 0 6 -2 10 -4 10 -3 0
-8 -4 -11 -10z"/>
<path d="M9450 7580 c-12 -7 -12 -12 -3 -21 10 -10 14 -9 19 5 8 22 2 27 -16
16z"/>
<path d="M9370 7560 c-6 -11 -7 -20 -2 -20 10 0 32 21 32 32 0 16 -19 8 -30
-12z"/>
<path d="M9971 7573 c-7 -3 -22 -14 -33 -25 -17 -17 -18 -22 -7 -29 8 -5 21
-8 29 -7 8 2 20 0 25 -4 9 -6 75 44 75 57 0 3 -9 5 -20 5 -11 0 -20 -7 -20
-15 0 -8 -6 -15 -14 -15 -9 0 -12 7 -9 20 5 20 0 23 -26 13z"/>
<path d="M2765 7540 c-3 -6 1 -7 9 -4 18 7 21 14 7 14 -6 0 -13 -4 -16 -10z"/>
<path d="M10050 7510 c0 -5 7 -10 15 -10 8 0 15 -4 15 -10 0 -5 -4 -10 -10
-10 -5 0 -10 -5 -10 -12 0 -7 10 -2 23 10 19 19 20 24 7 32 -20 13 -40 13 -40
0z"/>
<path d="M9388 7502 c-10 -2 -18 -8 -18 -13 0 -11 11 -11 30 1 18 11 11 18
-12 12z"/>
<path d="M9646 7501 c-8 -12 3 -41 15 -41 5 0 9 11 9 25 0 25 -14 34 -24 16z"/>
<path d="M9525 7470 c3 -5 8 -10 11 -10 2 0 4 5 4 10 0 6 -5 10 -11 10 -5 0
-7 -4 -4 -10z"/>
<path d="M9826 7461 c-4 -7 -5 -15 -2 -18 9 -9 19 4 14 18 -4 11 -6 11 -12 0z"/>
<path d="M9765 7450 c-3 -5 1 -10 9 -10 9 0 16 5 16 10 0 6 -4 10 -9 10 -6 0
-13 -4 -16 -10z"/>
<path d="M9687 7443 c-13 -12 -7 -23 13 -23 11 0 20 7 20 15 0 15 -21 21 -33
8z"/>
<path d="M9920 7422 c0 -21 30 -52 50 -52 10 0 10 4 -2 18 -8 9 -18 25 -21 35
-8 23 -27 22 -27 -1z"/>
<path d="M10020 7410 c0 -5 4 -10 9 -10 6 0 13 5 16 10 3 6 -1 10 -9 10 -9 0
-16 -4 -16 -10z"/>
<path d="M5951 6794 c0 -11 3 -14 6 -6 3 7 2 16 -1 19 -3 4 -6 -2 -5 -13z"/>
<path d="M9895 6785 c-113 -22 -166 -40 -280 -99 -85 -43 -115 -66 -200 -151
-184 -183 -267 -377 -267 -618 1 -188 24 -279 114 -439 38 -67 166 -218 185
-218 6 0 13 -3 15 -7 9 -22 143 -103 178 -108 3 0 15 -6 28 -13 33 -19 110
-42 157 -48 22 -2 46 -7 54 -10 35 -12 228 -4 295 12 83 20 126 36 126 46 0 5
10 8 23 8 37 0 106 38 192 105 95 74 165 142 165 161 0 7 6 17 14 21 21 12 62
75 76 119 7 21 23 59 35 84 13 25 26 71 30 104 4 32 10 54 15 50 11 -13 19
-114 8 -114 -5 0 -8 -15 -7 -32 1 -18 -4 -46 -13 -63 -21 -42 -31 -85 -18 -85
5 0 10 9 10 20 0 12 11 31 23 43 28 26 49 70 74 152 13 46 18 95 18 210 0 137
-2 158 -28 237 -15 48 -43 116 -62 152 -62 117 -181 256 -275 323 -72 52 -218
120 -305 143 -107 28 -275 34 -380 15z m30 -524 c-8 -14 -25 -14 -25 0 0 5 5
7 10 4 6 -3 10 -1 10 6 0 7 3 10 6 6 3 -3 3 -10 -1 -16z m92 -13 c-3 -8 -6 -5
-6 6 -1 11 2 17 5 13 3 -3 4 -12 1 -19z m-152 -48 c3 -5 1 -10 -4 -10 -6 0
-11 5 -11 10 0 6 2 10 4 10 3 0 8 -4 11 -10z m194 -355 c-9 -9 -23 -13 -32 -9
-28 10 -19 24 15 24 29 0 31 -2 17 -15z m-154 -12 c-15 -36 -17 -53 -7 -53 5
0 15 14 21 31 18 52 34 30 37 -49 2 -78 31 -153 82 -214 21 -25 23 -30 9 -25
-10 4 -22 7 -25 7 -4 0 -20 23 -37 50 -16 27 -33 50 -37 50 -5 0 -8 -16 -8
-35 0 -23 4 -34 13 -32 14 2 13 -5 -5 -51 -12 -31 -11 -35 11 -54 18 -14 36
-18 69 -16 41 3 46 0 79 -39 l34 -41 -35 -17 c-31 -15 -41 -15 -67 -5 -37 16
-55 3 -43 -31 4 -13 8 -27 9 -30 0 -4 16 -25 35 -47 32 -39 38 -41 75 -36 38
5 39 4 21 -10 -11 -9 -27 -16 -35 -16 -9 -1 -32 -7 -51 -14 -19 -8 -59 -23
-89 -34 -29 -12 -65 -19 -80 -16 -22 4 -40 6 -107 13 -6 0 -29 15 -50 32 -22
17 -48 35 -59 40 -11 5 -28 14 -37 21 -14 10 -20 9 -31 -6 -14 -19 -15 -19
-43 3 -50 39 -114 102 -114 111 0 5 12 13 27 16 21 6 30 2 41 -14 8 -12 21
-22 28 -22 8 0 14 -4 14 -10 0 -16 22 -12 36 8 11 14 9 20 -8 39 l-20 22 22
23 c12 13 33 47 46 76 20 44 31 56 68 72 25 10 52 30 61 43 15 23 20 25 75 20
40 -4 65 -2 75 7 17 14 21 50 5 50 -5 0 -10 12 -10 28 -1 15 -7 38 -15 52 -15
26 -20 101 -8 113 14 15 35 7 28 -10z m345 -203 c0 -5 -4 -10 -10 -10 -5 0
-10 5 -10 10 0 6 5 10 10 10 6 0 10 -4 10 -10z m-20 -59 c-1 -13 -30 34 -30
48 0 9 7 3 15 -13 8 -15 15 -31 15 -35z m160 -338 c-1 -12 -90 -70 -135 -88
-22 -9 -53 -22 -70 -30 -16 -7 -65 -18 -108 -24 -95 -13 -97 -13 -97 -2 0 13
24 20 103 31 39 6 75 14 81 19 6 4 49 22 96 40 47 19 92 40 100 47 16 15 30
18 30 7z"/>
<path d="M9835 5390 c3 -5 8 -10 11 -10 2 0 4 5 4 10 0 6 -5 10 -11 10 -5 0
-7 -4 -4 -10z"/>
<path d="M9590 5350 c0 -5 5 -10 11 -10 5 0 7 5 4 10 -3 6 -8 10 -11 10 -2 0
-4 -4 -4 -10z"/>
<path d="M5975 6770 c-3 -5 -1 -10 4 -10 6 0 11 5 11 10 0 6 -2 10 -4 10 -3 0
-8 -4 -11 -10z"/>
<path d="M5977 6555 c7 -234 3 -253 -75 -338 -76 -81 -102 -116 -102 -135 0
-12 3 -13 11 -5 6 6 18 9 25 6 8 -3 14 0 14 6 0 6 9 11 21 11 23 0 56 16 77
37 11 11 11 14 -2 19 -29 11 -5 25 32 19 68 -11 137 -29 143 -37 3 -5 20 -12
37 -17 49 -14 41 6 -29 74 -33 33 -67 71 -74 85 -10 20 -12 73 -8 247 l6 222
-41 -2 -41 -1 6 -191z"/>
<path d="M5970 6104 c-187 -38 -277 -89 -300 -172 -14 -51 -13 -68 6 -108 21
-44 53 -63 66 -40 13 22 32 20 83 -9 30 -18 44 -22 47 -13 8 22 114 -26 161
-73 22 -22 44 -30 103 -40 41 -6 77 -16 80 -20 8 -14 42 -11 74 6 17 9 61 44
100 78 113 103 131 109 365 123 110 6 207 9 215 6 12 -4 13 -2 2 9 -13 14
-100 24 -332 38 -161 9 -196 23 -280 111 -72 75 -137 101 -270 105 -52 2 -106
1 -120 -1z m-135 -254 c10 -11 14 -20 9 -20 -5 0 -15 9 -22 20 -7 11 -11 20
-9 20 2 0 12 -9 22 -20z m87 -63 c7 -3 9 -6 3 -6 -20 -2 -68 45 -61 58 6 9 14
4 26 -17 10 -16 24 -32 32 -35z"/>
<path d="M820 5923 c0 -12 5 -25 10 -28 13 -8 13 15 0 35 -8 12 -10 11 -10 -7z"/>
<path d="M6981 5862 c12 -19 24 -20 243 -21 237 -1 549 -11 543 -18 -2 -2 -48
-6 -102 -8 -55 -3 -101 -8 -104 -10 -7 -7 554 -6 631 1 81 8 80 27 -1 23 -31
-1 -67 -1 -81 0 l-25 3 25 7 c35 11 -209 20 -695 27 -225 3 -418 8 -428 11
-16 4 -17 2 -6 -15z m846 -38 c-3 -3 -12 -4 -19 -1 -8 3 -5 6 6 6 11 1 17 -2
13 -5z"/>
<path d="M870 5796 c0 -8 4 -17 9 -20 5 -4 7 3 4 14 -6 23 -13 26 -13 6z"/>
<path d="M7468 5793 c12 -2 30 -2 40 0 9 3 -1 5 -23 4 -22 0 -30 -2 -17 -4z"/>
<path d="M890 5745 c0 -8 4 -15 10 -15 5 0 7 7 4 15 -4 8 -8 15 -10 15 -2 0
-4 -7 -4 -15z"/>
<path d="M5703 5728 c4 -12 1 -18 -8 -18 -8 0 -15 -5 -15 -11 0 -6 -11 -20
-25 -31 -28 -21 -33 -56 -10 -64 8 -3 23 -21 35 -41 15 -26 25 -33 40 -28 15
5 21 0 26 -22 4 -15 16 -34 26 -42 11 -7 17 -19 14 -27 -3 -8 5 -25 17 -38 12
-13 28 -43 35 -67 18 -59 28 -69 70 -69 30 0 43 7 74 42 22 25 34 46 29 51
-13 13 -99 18 -106 6 -7 -11 -25 -12 -25 -1 0 4 11 15 25 24 22 17 25 17 40 2
28 -29 25 -9 -4 25 -26 30 -33 33 -64 28 -23 -3 -42 0 -54 8 -17 14 -17 14 5
15 23 0 31 25 10 33 -10 3 -10 8 1 21 8 9 11 20 7 24 -4 4 -18 -5 -30 -20 -21
-27 -36 -36 -36 -20 0 4 12 20 26 35 14 16 24 30 21 33 -2 2 -10 -2 -16 -10
-7 -8 -19 -12 -27 -9 -8 3 -14 0 -14 -7 0 -6 -5 -8 -11 -4 -8 4 -8 9 0 17 23
23 12 40 -22 34 -24 -4 -40 0 -58 15 l-24 20 37 -6 c21 -2 40 0 44 5 3 6 12 8
20 5 28 -11 13 12 -15 24 -26 10 -28 14 -18 31 9 15 8 22 -7 36 -18 17 -19 17
-13 1z m152 -318 c3 -5 -1 -10 -10 -10 -9 0 -13 5 -10 10 3 6 8 10 10 10 2 0
7 -4 10 -10z m35 -10 c-8 -5 -17 -7 -19 -4 -3 3 1 9 9 14 8 5 17 7 19 4 3 -3
-1 -9 -9 -14z"/>
<path d="M5800 5670 c0 -11 45 -83 95 -152 28 -38 34 -42 75 -42 25 0 48 -4
52 -10 14 -21 8 -47 -13 -55 -20 -7 -19 -9 15 -25 61 -29 112 -5 179 85 15 20
27 43 27 51 0 8 9 27 20 41 11 14 20 28 20 31 0 3 -45 2 -100 -1 -76 -5 -109
-2 -142 9 -24 9 -78 26 -120 39 -43 13 -78 27 -78 31 0 4 -7 8 -15 8 -8 0 -15
-5 -15 -10z m270 -156 c0 -13 8 -15 53 -9 28 4 49 4 45 0 -14 -15 -86 -23
-152 -16 -89 8 -100 29 -19 34 32 2 61 4 66 5 4 1 7 -5 7 -14z"/>
<path d="M5876 5475 c4 -8 8 -15 10 -15 2 0 4 7 4 15 0 8 -4 15 -10 15 -5 0
-7 -7 -4 -15z"/>
<path d="M9525 4750 c-3 -5 -1 -10 4 -10 6 0 11 5 11 10 0 6 -2 10 -4 10 -3 0
-8 -4 -11 -10z"/>
<path d="M9590 4751 c-8 -6 -18 -7 -22 -5 -4 3 -8 -2 -8 -11 0 -13 -5 -15 -17
-10 -10 4 -50 7 -90 6 -42 -1 -79 3 -91 10 -21 13 -57 5 -47 -11 4 -6 11 -8
16 -5 5 4 13 -5 18 -18 10 -25 30 -33 106 -43 22 -3 49 -9 60 -14 34 -15 86
-22 188 -27 91 -4 98 -3 95 14 -2 10 -13 19 -26 21 -12 2 -22 10 -22 17 0 9 7
12 18 9 14 -5 14 -3 -2 10 -11 9 -27 16 -35 15 -11 0 -12 -2 -3 -6 23 -9 12
-20 -15 -15 -36 6 -53 20 -47 37 10 25 -46 44 -76 26z m40 -15 c0 -11 -19 -15
-25 -6 -3 5 1 10 9 10 9 0 16 -2 16 -4z m-33 -82 c-3 -3 -12 -4 -19 -1 -8 3
-5 6 6 6 11 1 17 -2 13 -5z"/>
<path d="M9265 4726 c-8 -18 10 -39 29 -33 17 5 18 27 3 27 -9 0 -17 6 -20 13
-3 8 -7 6 -12 -7z"/>
<path d="M9980 4485 c0 -9 12 -20 26 -25 38 -15 40 -13 14 15 -27 29 -40 32
-40 10z"/>
<path d="M9990 3745 c0 -21 44 -40 67 -30 16 8 16 9 -4 12 -12 2 -27 11 -33
19 -16 18 -30 18 -30 -1z"/>
<path d="M8710 3405 c0 -8 4 -15 10 -15 5 0 7 7 4 15 -4 8 -8 15 -10 15 -2 0
-4 -7 -4 -15z"/>
<path d="M8763 3340 c6 -17 15 -30 20 -30 5 0 6 -10 3 -22 -3 -13 -3 -17 0
-10 9 20 27 14 21 -7 -3 -14 -1 -18 9 -14 8 3 14 -1 14 -10 0 -22 -16 -30 -39
-17 -20 10 -40 -3 -21 -15 17 -11 50 -14 50 -6 0 10 37 21 44 13 3 -3 1 -11
-5 -18 -7 -8 -7 -14 1 -19 18 -11 11 -27 -9 -20 -15 4 -23 -2 -35 -26 -18 -36
-12 -54 8 -26 17 22 37 22 29 0 -5 -12 -3 -14 7 -8 8 5 11 3 8 -5 -8 -26 -61
-19 -91 13 -26 27 -31 55 -5 29 19 -19 30 -14 26 10 -2 15 -10 23 -23 24 -54
2 -57 4 -52 24 4 15 0 20 -15 20 -15 0 -18 -5 -13 -20 5 -17 2 -20 -25 -20
-26 0 -31 3 -26 16 5 13 2 15 -14 11 -10 -3 -18 0 -17 5 1 6 -6 12 -17 13 -10
2 -23 8 -29 14 -6 6 -17 11 -24 11 -23 0 -14 -17 17 -32 48 -23 186 -153 234
-221 68 -95 126 -210 163 -321 30 -92 33 -97 29 -51 -2 28 -2 42 1 33 8 -32
19 -19 18 21 0 26 -4 37 -12 34 -21 -8 -11 52 19 114 6 12 8 33 4 46 -4 18 -1
27 10 31 10 4 13 13 9 26 -5 14 -2 20 9 20 9 0 16 7 16 15 0 8 7 15 15 15 8 0
15 5 15 10 0 6 10 2 22 -10 28 -26 48 -26 41 0 -4 17 -1 20 23 19 16 0 38 -4
49 -9 19 -8 19 -9 -3 -9 -14 -1 -21 -5 -16 -12 4 -7 25 -9 60 -4 35 4 61 2 76
-6 24 -13 79 -13 125 1 28 8 28 8 -7 9 -48 1 -152 24 -229 50 -148 51 -270
131 -390 257 -67 70 -86 86 -78 64z m137 -150 c0 -5 -2 -10 -4 -10 -3 0 -8 5
-11 10 -3 6 -1 10 4 10 6 0 11 -4 11 -10z m124 -105 c11 -8 18 -17 15 -19 -2
-3 -15 4 -29 14 -14 11 -20 20 -15 19 6 0 19 -6 29 -14z m-184 -35 c0 -5 -5
-10 -11 -10 -5 0 -7 5 -4 10 3 6 8 10 11 10 2 0 4 -4 4 -10z"/>
<path d="M7915 3300 c-11 -5 -45 -9 -76 -9 -97 -2 -251 -61 -369 -141 -93 -64
-183 -172 -227 -270 -6 -14 -25 -57 -42 -96 -33 -76 -58 -193 -60 -282 0 -29
-2 -56 -5 -60 -2 -4 1 -18 7 -32 5 -14 11 -47 13 -74 2 -27 9 -55 15 -62 6 -7
8 -18 5 -23 -4 -6 -2 -18 3 -28 5 -10 26 -52 46 -93 47 -98 59 -118 84 -144
65 -67 145 -142 160 -151 9 -5 33 -23 53 -38 37 -28 48 -33 131 -47 35 -7 56
-5 82 6 19 8 38 14 42 13 21 -3 33 2 33 15 0 17 83 27 118 14 39 -13 25 -50
-23 -64 l-40 -12 28 -7 c25 -7 103 -2 112 7 2 2 5 17 7 33 3 26 -2 32 -38 50
-22 11 -62 39 -89 63 -51 45 -78 52 -94 25 -8 -15 -23 -18 -79 -17 -66 1 -70
0 -78 -25 l-9 -26 -24 24 c-24 24 -22 42 3 22 11 -9 16 -9 22 0 4 7 -3 20 -20
31 -14 11 -24 24 -20 29 3 5 0 9 -5 9 -15 0 -14 56 2 72 6 7 13 30 14 51 2 32
0 38 -13 33 -10 -4 -14 -1 -12 6 3 7 19 16 36 20 18 5 32 15 32 23 0 21 60 8
85 -19 23 -24 73 -28 97 -8 9 7 18 9 20 5 3 -4 3 -1 1 7 -2 8 6 23 19 33 15
12 19 20 11 23 -13 6 3 64 18 64 17 0 9 19 -17 44 -16 14 -24 30 -21 39 3 9
-1 18 -10 21 -10 4 -13 12 -8 24 4 9 10 32 14 51 5 26 11 35 29 36 14 1 22 -4
22 -15 0 -29 11 -29 41 -3 31 28 37 61 17 93 -12 18 -9 23 20 46 17 14 32 32
32 40 0 23 -16 16 -28 -12 -9 -19 -17 -24 -32 -19 -14 5 -20 2 -20 -9 0 -10
-9 -16 -25 -16 -27 0 -34 15 -10 24 8 3 15 9 15 14 0 14 -59 43 -83 41 -12 -1
-30 2 -41 6 -12 5 -21 3 -26 -6 -13 -19 -1 -32 26 -26 13 2 25 -1 28 -9 5 -14
-85 -40 -109 -30 -17 6 -21 61 -5 71 15 9 2 25 -21 25 -25 0 -69 28 -69 45 0
15 44 29 48 15 2 -6 11 -17 20 -26 14 -15 17 -14 33 7 9 12 32 30 50 38 40 19
54 61 20 61 -12 0 -21 6 -21 15 0 12 -4 13 -18 4 -11 -7 -31 -9 -46 -5 -23 6
-27 11 -22 30 3 13 -1 31 -9 42 -18 23 -20 95 -3 112 16 16 29 15 22 -2 -7
-18 36 -26 99 -19 48 6 153 -13 163 -29 3 -4 -1 -8 -8 -8 -7 0 -20 -4 -28 -10
-12 -7 -12 -12 0 -34 15 -28 39 -33 71 -13 18 10 23 9 26 -1 3 -7 16 -18 30
-23 19 -7 24 -15 20 -29 -4 -15 0 -20 13 -20 35 0 71 -22 65 -40 -3 -10 5 -28
19 -43 l25 -27 -24 6 c-15 4 -25 2 -25 -4 0 -26 14 -42 39 -43 23 -1 23 -2 -7
-9 -30 -7 -67 -30 -49 -30 4 0 3 -8 -2 -19 -8 -14 -6 -23 11 -37 20 -19 21
-19 14 3 -7 23 8 41 19 23 5 -7 11 -5 19 6 12 15 13 15 19 0 6 -14 10 -14 44
5 21 12 44 26 51 31 17 14 15 2 -4 -28 -13 -19 -14 -28 -5 -37 17 -17 13 -27
-9 -27 -23 0 -26 -13 -7 -27 17 -14 67 -25 67 -16 0 5 7 17 15 27 12 16 17 17
30 6 25 -21 54 -87 43 -98 -11 -11 7 -26 21 -18 12 8 21 46 10 46 -4 0 -6 7
-3 15 9 22 24 18 24 -5 0 -11 5 -20 12 -20 9 0 9 -3 0 -12 -14 -14 -15 -37 -3
-57 6 -10 13 -11 29 -2 14 7 23 8 27 1 3 -5 1 -10 -4 -10 -14 0 -14 -43 0 -57
6 -6 18 -9 25 -6 8 3 14 -1 14 -11 0 -9 7 -16 15 -16 12 0 13 9 8 46 -5 37 -3
48 10 56 10 5 17 16 17 23 0 24 14 17 32 -15 18 -31 45 -42 34 -14 -5 14 -4
15 9 4 8 -7 13 -16 10 -20 -3 -5 -1 -11 5 -15 5 -3 10 -1 10 5 0 6 10 10 23 9
55 -5 57 -3 57 60 0 33 -4 63 -10 66 -16 10 -12 35 5 29 17 -7 21 11 5 21 -6
4 -8 10 -6 14 7 10 -20 124 -44 186 -28 75 -88 185 -123 227 -34 41 -52 49
-43 20 4 -11 -2 -22 -14 -30 -23 -14 -24 -10 -10 38 10 33 8 35 -52 92 -34 31
-74 60 -90 63 -15 4 -28 11 -28 16 0 11 -40 32 -115 59 -110 40 -160 52 -215
56 -30 2 -71 5 -90 7 -19 3 -44 1 -55 -3z m375 -90 c0 -5 -5 -10 -11 -10 -5 0
-7 5 -4 10 3 6 8 10 11 10 2 0 4 -4 4 -10z m-736 -215 c-9 -14 -19 -24 -21
-21 -6 6 20 46 30 46 4 0 0 -11 -9 -25z m-104 -26 c0 -36 -19 -59 -48 -59
l-27 0 25 13 c16 8 26 23 28 40 4 31 22 37 22 6z m236 -155 c32 -8 32 -40 -1
-48 -14 -4 -30 -4 -36 0 -5 3 -17 0 -26 -8 -14 -11 -15 -10 -9 9 7 21 5 22
-22 17 -28 -6 -52 9 -38 23 9 9 79 21 94 17 8 -2 25 -7 38 -10z m-110 -75 c1
-13 5 -32 9 -41 4 -11 0 -20 -14 -27 -33 -18 -41 -13 -41 24 0 61 43 102 46
44z m754 -55 c0 -8 -5 -12 -10 -9 -6 4 -8 11 -5 16 9 14 15 11 15 -7z m20 -70
c0 -8 -4 -12 -10 -9 -5 3 -10 10 -10 16 0 5 5 9 10 9 6 0 10 -7 10 -16z m222
-60 c-4 -23 -8 -25 -51 -22 -35 3 -47 8 -49 22 -2 10 0 16 5 13 4 -3 26 -1 48
3 22 4 43 8 46 9 3 0 4 -11 1 -25z m165 -11 c4 -12 -34 -29 -44 -19 -3 3 -3
12 1 21 7 18 37 17 43 -2z m-847 -12 c0 -12 -20 -25 -27 -18 -7 7 6 27 18 27
5 0 9 -4 9 -9z m720 -5 c0 -3 -4 -8 -10 -11 -5 -3 -10 -1 -10 4 0 6 5 11 10
11 6 0 10 -2 10 -4z m-750 -44 c-20 -7 -40 7 -34 23 6 14 9 14 26 -2 12 -10
15 -19 8 -21z m846 -9 c-11 -11 -19 6 -11 24 8 17 8 17 12 0 3 -10 2 -21 -1
-24z m-189 11 c-3 -3 -12 -4 -19 -1 -8 3 -5 6 6 6 11 1 17 -2 13 -5z m57 -16
c-7 -22 -35 -50 -43 -43 -3 4 40 63 47 64 2 1 0 -9 -4 -21z m-1179 -28 c3 -6
-4 -10 -17 -10 -18 0 -20 2 -8 10 19 12 18 12 25 0z m305 -250 c0 -5 -5 -10
-11 -10 -5 0 -7 5 -4 10 3 6 8 10 11 10 2 0 4 -4 4 -10z m85 -30 c3 -5 1 -10
-4 -10 -6 0 -11 5 -11 10 0 6 2 10 4 10 3 0 8 -4 11 -10z"/>
<path d="M7760 2970 c0 -5 5 -10 10 -10 6 0 10 5 10 10 0 6 -4 10 -10 10 -5 0
-10 -4 -10 -10z"/>
<path d="M9077 2945 c-5 -10 0 -15 14 -15 12 0 19 5 17 12 -6 18 -25 20 -31 3z"/>
<path d="M9148 2943 c7 -3 16 -2 19 1 4 3 -2 6 -13 5 -11 0 -14 -3 -6 -6z"/>
<path d="M7680 2930 c0 -5 5 -10 10 -10 6 0 10 5 10 10 0 6 -4 10 -10 10 -5 0
-10 -4 -10 -10z"/>
<path d="M3868 2915 c-110 -18 -252 -88 -299 -149 -13 -16 -33 -40 -46 -54
-12 -13 -20 -29 -17 -37 3 -7 -2 -15 -10 -18 -9 -4 -16 -13 -16 -22 0 -17 25
-21 35 -5 9 15 25 2 19 -14 -3 -8 -14 -12 -25 -9 -10 3 -19 0 -19 -6 0 -6 8
-11 18 -11 10 0 23 -5 30 -12 9 -9 15 -8 27 8 8 10 15 14 15 8 0 -19 38 -56
45 -44 3 5 14 10 24 10 11 0 21 9 24 21 5 19 11 20 69 15 127 -11 173 -18 180
-29 3 -6 14 -12 24 -13 10 -2 21 -10 26 -18 6 -10 23 -16 43 -16 24 0 35 -5
35 -15 0 -8 3 -14 8 -13 17 5 51 -14 57 -32 3 -10 15 -22 26 -25 10 -4 19 -13
19 -21 0 -8 9 -14 20 -14 11 0 20 -7 20 -15 0 -20 38 -57 50 -50 6 4 10 2 10
-4 0 -5 -4 -13 -10 -16 -6 -4 -6 -12 0 -23 16 -28 40 -111 40 -137 0 -13 5
-27 10 -30 6 -3 10 -13 10 -21 0 -8 15 -28 33 -44 17 -16 26 -30 20 -30 -7 0
-13 -9 -13 -20 0 -15 7 -20 29 -20 17 0 33 5 36 10 3 6 14 10 23 10 19 0 52
48 52 74 0 9 4 16 9 16 19 0 61 162 61 233 -1 56 -19 147 -44 214 -20 53 -86
153 -102 153 -7 0 -15 14 -19 31 -7 30 -33 59 -73 83 -11 6 -44 26 -73 43 -60
36 -79 41 -79 18 0 -8 -9 -15 -20 -15 -25 0 -26 16 -3 29 15 8 13 10 -12 16
-17 3 -49 10 -72 16 -53 11 -86 10 -195 -6z m424 -105 c43 -42 43 -53 1 -20
-14 11 -32 20 -39 20 -7 0 -18 9 -24 20 -19 36 19 24 62 -20z m-652 -209 c0
-12 -20 -25 -27 -18 -7 7 6 27 18 27 5 0 9 -4 9 -9z m325 -11 c3 -5 1 -10 -4
-10 -6 0 -11 5 -11 10 0 6 2 10 4 10 3 0 8 -4 11 -10z"/>
<path d="M7770 2916 c0 -8 6 -17 13 -19 6 -3 -1 -4 -18 -1 -18 2 -38 -2 -49
-11 -25 -19 -15 -30 14 -15 18 10 27 7 57 -16 28 -21 37 -24 44 -13 13 20 11
26 -9 41 -10 7 -21 21 -25 31 -8 20 -27 23 -27 3z"/>
<path d="M7817 2769 c-10 -12 -17 -32 -15 -47 3 -27 4 -26 22 10 22 45 18 67
-7 37z"/>
<path d="M6095 2524 c-33 -14 -76 -32 -95 -39 -68 -26 -185 -94 -192 -112 -3
-10 -9 -30 -12 -45 -6 -24 -11 -28 -40 -28 -28 0 -38 -6 -54 -32 -22 -36 -26
-61 -24 -155 l2 -63 36 0 c27 0 37 5 41 20 3 11 10 20 15 20 5 0 16 16 24 35
16 38 94 125 112 125 18 0 15 -13 -13 -54 -15 -23 -25 -51 -25 -73 0 -31 9
-45 58 -94 55 -56 59 -58 94 -50 36 8 36 8 40 -25 3 -23 0 -34 -9 -34 -7 0
-13 -4 -13 -10 0 -13 10 -12 40 5 22 12 27 11 44 -3 14 -13 20 -14 23 -4 3 6
9 9 15 6 6 -4 5 -10 -3 -15 -7 -4 -10 -12 -5 -16 4 -4 13 -1 19 8 19 26 53 32
86 15 17 -9 41 -16 53 -16 30 0 92 -62 113 -112 8 -21 15 -53 15 -73 0 -28 4
-35 20 -35 10 0 24 -9 30 -20 6 -11 15 -18 21 -15 5 4 23 -7 39 -23 32 -32 66
-33 85 -3 15 25 16 219 1 233 -8 8 -11 29 -8 60 4 38 0 53 -14 69 -10 11 -18
36 -19 57 0 20 -4 43 -9 50 -4 7 -3 18 2 25 5 7 13 22 16 35 6 16 3 22 -8 22
-9 0 -16 -8 -16 -17 0 -10 -8 -27 -16 -38 -15 -19 -15 -19 -8 10 4 17 11 35
16 41 9 13 1 44 -13 44 -5 0 -9 -7 -9 -15 0 -8 -4 -15 -10 -15 -5 0 -10 -6
-10 -13 0 -21 -49 -40 -66 -26 -19 16 -17 32 5 46 10 6 22 28 25 48 6 30 3 42
-19 71 -14 19 -31 31 -37 28 -7 -4 -7 0 0 13 8 15 7 22 -9 31 -10 7 -19 8 -19
3 0 -5 6 -12 13 -14 6 -3 -6 -3 -28 0 -50 7 -85 26 -37 20 44 -5 64 18 22 26
-16 4 -37 4 -45 1 -8 -4 -21 -1 -28 4 -7 6 -18 7 -26 3 -11 -7 -9 -11 5 -20
26 -14 7 -13 -39 3 -100 34 -100 86 -2 122 11 4 26 8 34 8 20 1 26 26 7 26 -8
0 -17 -4 -21 -10 -4 -6 -15 -6 -31 0 -40 16 -74 11 -139 -16z m320 -204 c3 -5
-1 -10 -9 -10 -9 0 -16 5 -16 10 0 6 4 10 9 10 6 0 13 -4 16 -10z m-8 -62 c-3
-8 -6 -5 -6 6 -1 11 2 17 5 13 3 -3 4 -12 1 -19z m33 -18 c0 -5 -4 -10 -10
-10 -5 0 -10 5 -10 10 0 6 5 10 10 10 6 0 10 -4 10 -10z m-275 -290 c-3 -5
-10 -10 -16 -10 -5 0 -9 5 -9 10 0 6 7 10 16 10 8 0 12 -4 9 -10z m65 -6 c0
-14 -3 -14 -15 -4 -8 7 -15 14 -15 16 0 2 7 4 15 4 8 0 15 -7 15 -16z"/>
<path d="M6440 2495 c0 -23 4 -30 17 -30 6 0 15 -4 19 -8 4 -4 2 -7 -4 -7 -7
0 -12 -7 -12 -15 0 -20 6 -19 41 6 34 24 38 39 9 32 -12 -3 -20 0 -20 7 0 7
-8 9 -22 5 -17 -6 -20 -4 -15 9 4 9 2 16 -3 16 -6 0 -10 -7 -10 -15z"/>
<path d="M6200 2470 c0 -17 40 -51 56 -48 8 2 15 6 15 11 -1 4 -1 16 -1 27 0
16 -7 20 -35 20 -19 0 -35 -4 -35 -10z"/>
<path d="M8188 2412 c-55 -4 -63 -21 -18 -40 17 -8 27 -18 24 -23 -3 -6 -11
-5 -20 2 -11 9 -18 9 -29 -1 -13 -11 -20 -9 -38 9 -27 24 -42 27 -33 6 3 -8 2
-14 -2 -14 -20 3 -32 -3 -32 -16 0 -17 -11 -20 -26 -5 -13 13 -30 -1 -38 -32
-5 -21 -3 -28 8 -28 7 0 16 10 19 22 6 22 6 22 36 -6 41 -39 58 -90 41 -122
-24 -45 -59 -38 -60 12 0 17 -6 20 -49 21 -47 1 -51 -2 -75 -37 -21 -33 -23
-40 -11 -50 11 -9 18 -9 30 3 8 9 15 20 15 26 0 5 5 13 10 16 25 16 -5 -52
-34 -77 l-31 -27 26 -10 c15 -5 29 -16 32 -23 3 -9 12 -6 32 12 16 14 25 19
21 13 -4 -8 -1 -13 9 -13 16 0 63 45 93 89 l16 24 8 -28 c4 -15 3 -36 -2 -46
-7 -12 -6 -20 1 -24 18 -12 23 3 26 77 1 40 7 76 13 82 20 20 10 46 -25 60
-40 17 -46 36 -11 36 14 0 28 5 31 10 4 6 15 8 24 5 11 -3 28 3 42 14 13 11
18 20 12 21 -7 0 -13 12 -13 26 0 25 2 26 35 21 19 -3 35 -2 35 2 0 12 -36 17
-92 13z"/>
<path d="M6483 2393 c0 -10 10 -30 24 -44 18 -20 22 -33 18 -52 -5 -19 -2 -28
13 -36 17 -9 20 -7 26 21 11 57 8 70 -16 63 -17 -6 -20 -4 -15 9 4 10 1 16 -9
16 -9 0 -12 5 -8 11 3 6 0 15 -7 20 -20 13 -26 11 -26 -8z"/>
<path d="M5650 2351 c0 -5 7 -11 15 -15 23 -8 18 -23 -16 -54 -22 -20 -30 -35
-27 -52 3 -23 5 -22 33 20 17 25 33 47 38 48 14 7 7 42 -12 52 -24 12 -31 13
-31 1z"/>
<path d="M6460 2334 c0 -8 5 -12 10 -9 6 4 8 11 5 16 -9 14 -15 11 -15 -7z"/>
<path d="M8390 2334 c0 -8 5 -12 10 -9 6 3 10 10 10 16 0 5 -4 9 -10 9 -5 0
-10 -7 -10 -16z"/>
<path d="M8742 2328 c2 -15 10 -23 23 -23 13 0 21 8 23 23 3 18 -1 22 -23 22
-22 0 -26 -4 -23 -22z"/>
<path d="M8336 2323 c-11 -11 -6 -23 9 -23 8 0 15 4 15 9 0 13 -16 22 -24 14z"/>
<path d="M8610 2271 c0 -5 5 -13 10 -16 6 -3 10 -2 10 4 0 5 -4 13 -10 16 -5
3 -10 2 -10 -4z"/>
<path d="M6641 2216 c-14 -16 -6 -40 10 -31 5 4 9 1 9 -4 0 -6 7 -11 15 -11
19 0 19 10 -3 38 -16 21 -20 22 -31 8z"/>
<path d="M7960 2220 c0 -5 5 -10 10 -10 6 0 10 5 10 10 0 6 -4 10 -10 10 -5 0
-10 -4 -10 -10z"/>
<path d="M7031 2174 c0 -11 3 -14 6 -6 3 7 2 16 -1 19 -3 4 -6 -2 -5 -13z"/>
<path d="M8170 2145 c0 -10 7 -15 18 -13 21 4 19 22 -2 26 -10 2 -16 -3 -16
-13z"/>
<path d="M7035 2117 c-4 -21 -5 -41 -1 -44 3 -3 1 -12 -5 -19 -7 -8 -7 -14 1
-19 14 -9 13 -25 -2 -25 -7 0 -19 4 -27 9 -12 8 -12 12 -2 25 8 9 10 16 7 16
-12 0 -31 -24 -33 -40 -1 -8 -5 -28 -8 -45 l-7 -30 21 25 21 25 0 -28 c0 -16
-7 -30 -15 -33 -10 -4 -13 -13 -9 -27 5 -17 3 -19 -20 -13 -16 4 -26 2 -26 -5
0 -6 9 -13 21 -16 19 -5 19 -7 -10 -34 -28 -25 -31 -33 -31 -91 0 -54 -28
-236 -45 -289 -8 -23 26 -30 42 -9 11 13 12 11 13 -10 0 -17 10 -30 30 -42 28
-16 30 -16 43 2 13 19 66 32 66 15 -1 -5 -5 -9 -9 -8 -10 3 -35 -26 -28 -33 3
-2 40 -5 82 -6 91 -2 117 13 95 53 -7 15 -14 19 -17 11 -2 -6 -8 -12 -14 -12
-6 0 -8 6 -5 14 3 8 -2 21 -12 30 -12 11 -16 26 -13 50 l4 35 74 12 c69 11 74
13 74 36 0 19 -4 24 -16 19 -17 -7 -44 9 -44 26 0 6 7 4 17 -3 13 -11 17 -11
20 -1 6 17 23 15 23 -3 0 -9 7 -18 15 -21 18 -7 20 -35 3 -52 -20 -20 1 -13
24 8 18 17 20 23 10 45 -17 38 -15 41 9 11 14 -17 18 -33 14 -48 -4 -13 -3
-18 2 -12 20 29 110 7 98 -24 -3 -9 1 -12 13 -8 21 7 54 -13 34 -21 -21 -8 -3
-23 26 -19 15 2 21 1 13 -1 -11 -4 -11 -7 -1 -13 7 -5 23 -3 36 2 18 8 26 7
39 -6 9 -9 28 -19 41 -22 32 -8 26 -27 -12 -35 -25 -5 -27 -7 -10 -14 13 -6
29 -3 48 8 38 22 44 21 70 -3 15 -13 33 -19 57 -18 20 1 71 1 113 0 74 -2 78
-3 84 -27 6 -26 7 -26 21 -5 8 11 31 29 51 40 l37 19 -83 1 c-94 0 -252 22
-331 46 -140 41 -272 124 -396 249 -106 105 -179 210 -224 321 -18 43 -36 88
-40 99 -7 17 -10 14 -16 -18z m60 -187 c-3 -5 -11 -10 -16 -10 -6 0 -7 5 -4
10 3 6 11 10 16 10 6 0 7 -4 4 -10z m-21 -93 c14 -39 -9 -62 -43 -44 -55 28
-54 81 1 75 25 -2 35 -9 42 -31z m-137 -89 c-3 -7 -5 -2 -5 12 0 14 2 19 5 13
2 -7 2 -19 0 -25z m218 16 c21 -22 14 -38 -18 -42 -29 -4 -44 16 -33 43 7 20
30 19 51 -1z m-195 -328 c0 -3 -4 -8 -10 -11 -5 -3 -10 -1 -10 4 0 6 5 11 10
11 6 0 10 -2 10 -4z"/>
<path d="M8644 2116 c-7 -18 9 -36 34 -36 17 0 15 7 -8 32 -18 20 -20 20 -26
4z"/>
<path d="M6690 2110 c0 -5 5 -10 10 -10 6 0 10 5 10 10 0 6 -4 10 -10 10 -5 0
-10 -4 -10 -10z"/>
<path d="M8203 2093 c-7 -16 -22 -40 -34 -55 -30 -37 -18 -45 31 -22 26 13 40
26 40 39 0 11 3 30 6 43 9 34 -28 29 -43 -5z"/>
<path d="M7640 2090 c-12 -22 -5 -44 11 -34 6 3 18 -1 28 -10 16 -15 19 -15
36 4 23 25 13 59 -11 39 -14 -11 -18 -11 -29 4 -16 22 -22 21 -35 -3z"/>
<path d="M7855 2080 c3 -5 8 -10 11 -10 2 0 4 5 4 10 0 6 -5 10 -11 10 -5 0
-7 -4 -4 -10z"/>
<path d="M7800 2040 c-14 -16 -30 -30 -37 -30 -7 0 -10 -7 -7 -15 5 -12 15 -6
45 24 21 21 39 41 39 45 0 14 -17 4 -40 -24z"/>
<path d="M7750 2050 c0 -5 5 -10 10 -10 6 0 10 5 10 10 0 6 -4 10 -10 10 -5 0
-10 -4 -10 -10z"/>
<path d="M8540 2004 c0 -16 5 -24 13 -22 18 7 20 35 2 41 -11 5 -15 0 -15 -19z"/>
<path d="M6880 1995 c0 -8 2 -15 4 -15 2 0 6 7 10 15 3 8 1 15 -4 15 -6 0 -10
-7 -10 -15z"/>
<path d="M7665 1980 c-3 -5 -2 -10 4 -10 5 0 16 -3 25 -6 11 -4 16 -1 16 10 0
18 -35 22 -45 6z"/>
<path d="M5476 1938 c-9 -12 -16 -38 -17 -58 0 -30 -16 -88 -18 -68 -1 4 -18
-4 -38 -18 -26 -18 -46 -24 -64 -20 -15 3 -34 -1 -45 -10 -15 -11 -15 -13 -3
-8 9 3 41 0 70 -5 109 -22 189 -33 203 -28 11 4 12 14 4 49 -5 24 -12 72 -16
108 -4 36 -11 66 -17 67 -5 1 -17 4 -26 8 -11 4 -22 -2 -33 -17z"/>
<path d="M7790 1939 c0 -5 5 -7 10 -4 6 3 10 8 10 11 0 2 -4 4 -10 4 -5 0 -10
-5 -10 -11z"/>
<path d="M6195 1870 c-15 -16 -15 -20 -3 -20 8 0 23 -9 33 -20 19 -21 65 -28
65 -10 0 6 -8 10 -18 10 -10 0 -29 10 -41 21 -18 17 -20 23 -9 30 7 5 8 9 2 9
-6 0 -19 -9 -29 -20z"/>
<path d="M3001 1864 c0 -11 3 -14 6 -6 3 7 2 16 -1 19 -3 4 -6 -2 -5 -13z"/>
<path d="M6900 1860 c0 -5 5 -10 11 -10 5 0 7 5 4 10 -3 6 -8 10 -11 10 -2 0
-4 -4 -4 -10z"/>
<path d="M8360 1801 c0 -5 7 -11 14 -14 10 -4 13 -1 9 9 -6 15 -23 19 -23 5z"/>
<path d="M3020 1794 c0 -5 7 -19 15 -30 8 -10 15 -14 15 -8 0 5 -7 19 -15 30
-8 10 -15 14 -15 8z"/>
<path d="M7710 1721 c0 -6 9 -11 19 -11 11 0 23 -4 26 -10 3 -5 17 -10 31 -10
19 0 25 5 22 18 -2 13 -15 18 -51 20 -28 2 -47 -1 -47 -7z"/>
<path d="M5255 1710 c3 -5 8 -10 11 -10 2 0 4 5 4 10 0 6 -5 10 -11 10 -5 0
-7 -4 -4 -10z"/>
<path d="M5240 1670 c0 -5 5 -10 10 -10 6 0 10 5 10 10 0 6 -4 10 -10 10 -5 0
-10 -4 -10 -10z"/>
<path d="M5324 1664 c3 -9 6 -20 6 -25 0 -13 69 -79 83 -79 5 0 7 -3 4 -6 -4
-4 -13 -2 -20 5 -21 17 -47 2 -48 -28 -1 -52 -10 -76 -39 -106 -39 -40 -38
-65 5 -135 19 -32 35 -65 35 -74 0 -9 6 -16 14 -16 8 0 17 -8 20 -18 9 -26
104 -96 177 -130 57 -26 95 -38 164 -48 11 -1 58 -10 105 -18 47 -9 110 -16
140 -16 l55 -1 -28 -15 c-36 -19 -30 -38 14 -44 23 -3 37 -12 44 -29 10 -22
12 -23 95 -16 47 3 96 9 110 12 25 6 25 6 6 -16 -22 -24 -18 -25 34 -10 34 10
38 15 36 43 -1 25 3 32 21 34 14 2 23 -3 28 -17 5 -18 14 -14 93 41 48 33 105
76 127 95 l40 35 143 -7 c106 -5 146 -4 157 5 28 23 15 30 -39 24 -32 -4 -68
-2 -87 5 -28 9 -34 9 -42 -4 -14 -26 -196 -5 -263 30 -37 19 -68 19 -119 -1
-55 -21 -103 -9 -125 31 -18 33 -58 48 -250 90 -159 35 -200 57 -297 156 -125
129 -184 209 -153 209 6 0 10 4 10 9 0 5 -27 7 -59 4 -51 -5 -67 -2 -112 21
-61 30 -94 34 -85 10z m65 -293 c21 -30 27 -51 13 -51 -8 0 -33 35 -44 63 -12
27 9 20 31 -12z m241 -81 c0 -5 -7 -7 -15 -4 -8 4 -12 10 -9 15 6 11 24 2 24
-11z m-145 -40 c3 -5 -1 -10 -9 -10 -9 0 -16 5 -16 10 0 6 4 10 9 10 6 0 13
-4 16 -10z m65 -55 c7 -9 10 -18 7 -22 -8 -7 -37 15 -37 28 0 14 16 11 30 -6z
m170 -5 c0 -5 -4 -10 -9 -10 -6 0 -13 5 -16 10 -3 6 1 10 9 10 9 0 16 -4 16
-10z m-35 -40 c3 -5 2 -10 -4 -10 -5 0 -13 5 -16 10 -3 6 -2 10 4 10 5 0 13
-4 16 -10z m675 -116 c0 -17 -22 -14 -28 4 -2 7 3 12 12 12 9 0 16 -7 16 -16z
m8 -60 c4 -27 -26 -40 -46 -20 -21 20 -8 48 20 44 14 -2 24 -11 26 -24z"/>
<path d="M4964 1633 c2 -13 -1 -26 -6 -29 -7 -4 -4 -11 6 -16 24 -13 25 -8 10
32 -8 19 -12 25 -10 13z"/>
<path d="M5285 1591 c-18 -4 -25 -9 -18 -14 6 -4 19 -4 28 -1 10 4 21 1 26 -7
6 -11 9 -8 9 9 0 12 -3 21 -7 21 -5 -1 -21 -4 -38 -8z"/>
<path d="M4936 1501 c4 -25 2 -41 -5 -46 -9 -5 -9 -11 0 -22 7 -8 12 -37 12
-64 -1 -47 11 -65 23 -34 7 17 34 21 34 4 0 -6 9 -8 20 -4 15 5 18 3 14 -9 -7
-18 11 -22 21 -6 5 8 -19 93 -32 109 -1 2 -9 -2 -18 -9 -23 -19 -45 5 -45 50
0 44 -8 70 -21 70 -5 0 -6 -17 -3 -39z"/>
<path d="M3190 1510 c0 -5 5 -10 11 -10 5 0 7 5 4 10 -3 6 -8 10 -11 10 -2 0
-4 -4 -4 -10z"/>
<path d="M8403 1510 c-13 -5 -23 -14 -23 -20 0 -15 8 -12 32 10 24 22 23 23
-9 10z"/>
<path d="M7279 1448 c-7 -18 -3 -85 5 -90 19 -13 24 -9 21 20 -2 15 2 33 8 40
8 10 7 16 -4 23 -14 8 -28 12 -30 7z"/>
<path d="M6851 1414 c0 -11 3 -14 6 -6 3 7 2 16 -1 19 -3 4 -6 -2 -5 -13z"/>
<path d="M7376 1372 c-10 -9 5 -22 24 -22 29 0 33 17 5 22 -13 3 -27 3 -29 0z"/>
<path d="M7519 1370 c-11 -7 -10 -10 4 -16 10 -4 23 -2 28 3 14 14 -13 24 -32
13z"/>
<path d="M7800 1363 c-32 -6 -51 -23 -24 -22 10 0 35 7 54 14 35 13 21 17 -30
8z"/>
<path d="M7607 1353 c-11 -3 -28 -14 -38 -24 -19 -19 -19 -19 8 -13 31 8 83
32 83 39 0 6 -27 5 -53 -2z"/>
<path d="M7385 1310 c3 -5 14 -11 23 -11 29 -2 -70 -17 -117 -18 -35 -1 -42
-4 -33 -13 8 -8 55 -11 152 -10 84 1 140 -2 140 -7 0 -17 -68 -24 -157 -17
-59 5 -89 4 -99 -5 -24 -20 -16 -29 26 -29 22 0 40 -4 40 -9 0 -5 -24 -8 -54
-7 -53 1 -76 -7 -63 -21 4 -3 63 -5 131 -4 69 1 127 -2 130 -7 6 -11 87 -4 99
8 5 4 -3 10 -17 14 -42 10 -30 23 17 17 28 -4 42 -11 42 -21 0 -22 28 -18 31
5 2 11 10 25 19 31 14 11 14 12 -1 18 -9 3 -38 4 -64 0 -38 -5 -48 -3 -53 10
-7 18 -7 18 71 18 36 0 52 4 52 13 0 20 -18 23 -125 21 -116 -3 -145 1 -145
20 0 8 -10 14 -26 14 -14 0 -23 -4 -19 -10z m60 -115 c0 -5 -10 -11 -22 -13
-13 -2 -23 2 -23 8 0 6 -4 8 -10 5 -5 -3 -10 -1 -10 5 0 7 13 10 33 8 17 -2
32 -7 32 -13z"/>
<path d="M5060 1295 c0 -8 4 -15 9 -15 5 0 12 -8 15 -17 13 -36 37 -73 47 -73
12 0 13 0 -26 67 -30 53 -45 66 -45 38z"/>
<path d="M6790 1284 c0 -8 5 -12 10 -9 6 3 10 10 10 16 0 5 -4 9 -10 9 -5 0
-10 -7 -10 -16z"/>
<path d="M7130 1240 c0 -5 5 -10 11 -10 5 0 7 5 4 10 -3 6 -8 10 -11 10 -2 0
-4 -4 -4 -10z"/>
<path d="M3678 1203 c5 -25 6 -25 13 -8 11 29 10 35 -5 35 -9 0 -12 -8 -8 -27z"/>
<path d="M7168 1223 c6 -2 18 -2 25 0 6 3 1 5 -13 5 -14 0 -19 -2 -12 -5z"/>
<path d="M6980 1185 c0 -2 10 -10 23 -16 20 -11 21 -11 8 4 -13 16 -31 23 -31
12z"/>
<path d="M8560 1182 c0 -36 65 -47 91 -16 9 11 4 12 -25 7 -22 -3 -42 -1 -51
7 -9 8 -15 8 -15 2z"/>
<path d="M5230 1067 c0 -2 15 -14 33 -27 20 -15 27 -17 18 -6 -13 16 -51 41
-51 33z"/>
<path d="M5484 875 c11 -8 24 -15 30 -15 5 0 1 7 -10 15 -10 8 -23 14 -29 14
-5 0 -1 -6 9 -14z"/>
<path d="M5540 847 c8 -9 94 -37 98 -32 3 3 -7 9 -22 15 -37 14 -82 24 -76 17z"/>
<path d="M5689 796 c18 -9 41 -16 50 -16 9 0 27 -7 39 -16 23 -16 42 -12 42
10 0 9 -19 16 -51 20 -29 4 -66 9 -83 12 l-31 5 34 -15z"/>
<path d="M5943 783 c-24 -2 -43 -8 -43 -14 0 -12 117 -12 124 0 6 9 -19 23
-32 19 -4 -1 -26 -3 -49 -5z"/>
<path d="M5918 363 c12 -2 32 -2 45 0 12 2 2 4 -23 4 -25 0 -35 -2 -22 -4z"/>
</g>
</svg>
